<?xml version="1.0" encoding="utf-8"?>
<!-- Generator: Adobe Illustrator 16.0.0, SVG Export Plug-In . SVG Version: 6.00 Build 0)  -->
<!DOCTYPE svg PUBLIC "-//W3C//DTD SVG 1.1//EN" "http://www.w3.org/Graphics/SVG/1.1/DTD/svg11.dtd">
<svg version="1.1" id="Layer_1" xmlns="http://www.w3.org/2000/svg" xmlns:xlink="http://www.w3.org/1999/xlink" x="0px" y="0px"
	 viewBox="0 0 38 38" enable-background="new 0 0 38 38" xml:space="preserve">
<g>
	<defs>
		<rect id="SVGID_1_" width="38" height="38"/>
	</defs>
	<clipPath id="SVGID_2_">
		<use xlink:href="#SVGID_1_"  overflow="visible"/>
	</clipPath>
	
		<path clip-path="url(#SVGID_2_)" fill="none" stroke="#FF687D" stroke-width="2" stroke-linecap="round" stroke-linejoin="round" d="
		M34.298,26.178c-2.001-0.539-4.313-1.185-5.578-1.613c-2.534-0.861-3.32,3.351-5.855,2.49c-2.534-0.859-5.091-3.406-6.796-5.105
		c-1.704-1.697-4.261-4.244-5.135-6.78s3.321-3.351,2.447-5.887c-0.437-1.267-1.098-3.588-1.649-5.594
		C11.18,1.687,9.065,0.537,7.12,1.177L3.401,2.401C1.732,2.949,0.734,4.638,1.063,6.385c0.792,4.232,3.248,12.175,10.856,19.754
		c7.598,7.569,15.497,10.014,19.709,10.801c1.744,0.325,3.429-0.681,3.972-2.357l1.226-3.785
		C37.46,28.84,36.301,26.718,34.298,26.178z"/>
</g>
</svg>
