<?xml version="1.0" encoding="utf-8"?>
<!-- Generator: Adobe Illustrator 16.0.0, SVG Export Plug-In . SVG Version: 6.00 Build 0)  -->
<!DOCTYPE svg PUBLIC "-//W3C//DTD SVG 1.1//EN" "http://www.w3.org/Graphics/SVG/1.1/DTD/svg11.dtd">
<svg version="1.1" id="Layer_1" xmlns="http://www.w3.org/2000/svg" xmlns:xlink="http://www.w3.org/1999/xlink" x="0px" y="0px"
	viewBox="0 0 30.456 37.5" enable-background="new 0 0 30.456 37.5" xml:space="preserve">
<g>
	<defs>
		<rect id="SVGID_1_" width="30.457" height="37.5"/>
	</defs>
	<clipPath id="SVGID_2_">
		<use xlink:href="#SVGID_1_"  overflow="visible"/>
	</clipPath>
	
		<path clip-path="url(#SVGID_2_)" fill="none" stroke="#181B22" stroke-width="1.5" stroke-linecap="round" stroke-linejoin="round" d="
		M2.315,0.75h25.826c0.863,0,1.564,0.701,1.564,1.565v32.87c0,0.864-0.701,1.565-1.564,1.565H2.315
		c-0.864,0-1.565-0.701-1.565-1.565V2.315C0.75,1.451,1.451,0.75,2.315,0.75z"/>
	
		<line clip-path="url(#SVGID_2_)" fill="none" stroke="#181B22" stroke-width="1.5" stroke-linecap="round" stroke-linejoin="round" x1="5.445" y1="5.445" x2="24.229" y2="5.445"/>
	
		<line clip-path="url(#SVGID_2_)" fill="none" stroke="#181B22" stroke-width="1.5" stroke-linecap="round" stroke-linejoin="round" x1="5.445" y1="9.358" x2="19.532" y2="9.358"/>
	
		<circle clip-path="url(#SVGID_2_)" fill="none" stroke="#181B22" stroke-width="1.5" stroke-linecap="round" stroke-linejoin="round" cx="14.837" cy="19.533" r="5.478"/>
	
		<polyline clip-path="url(#SVGID_2_)" fill="none" stroke="#181B22" stroke-width="1.5" stroke-linecap="round" stroke-linejoin="round" points="
		17.968,24.229 19.532,32.055 14.837,29.706 10.142,32.055 11.707,24.229 	"/>
	
		<polyline clip-path="url(#SVGID_2_)" fill="none" stroke="#181B22" stroke-width="1.5" stroke-linecap="round" stroke-linejoin="round" points="
		17.185,17.968 14.055,21.098 12.489,19.532 	"/>
</g>
</svg>
