<?xml version="1.0" encoding="utf-8"?>
<!-- Generator: Adobe Illustrator 16.0.0, SVG Export Plug-In . SVG Version: 6.00 Build 0)  -->
<!DOCTYPE svg PUBLIC "-//W3C//DTD SVG 1.1//EN" "http://www.w3.org/Graphics/SVG/1.1/DTD/svg11.dtd">
<svg version="1.1" id="Layer_1" xmlns="http://www.w3.org/2000/svg" xmlns:xlink="http://www.w3.org/1999/xlink" x="0px" y="0px"
	viewBox="0 0 37.5 32.804" enable-background="new 0 0 37.5 32.804" xml:space="preserve">
<g>
	<defs>
		<rect id="SVGID_1_" width="37.5" height="32.804"/>
	</defs>
	<clipPath id="SVGID_2_">
		<use xlink:href="#SVGID_1_"  overflow="visible"/>
	</clipPath>
	
		<path clip-path="url(#SVGID_2_)" fill="none" stroke="#181B22" stroke-width="1.5" stroke-linecap="round" stroke-linejoin="round" d="
		M1.622,32.054c-0.482,0-0.872-0.391-0.872-0.872V1.622c0-0.481,0.39-0.872,0.872-0.872h34.345c0.433,0,0.783,0.351,0.783,0.784
		v29.738c0,0.433-0.351,0.783-0.783,0.783H1.622z"/>
	
		<line clip-path="url(#SVGID_2_)" fill="none" stroke="#181B22" stroke-width="1.5" stroke-linecap="round" stroke-linejoin="round" x1="0.75" y1="5.446" x2="36.75" y2="5.446"/>
	
		<line clip-path="url(#SVGID_2_)" fill="none" stroke="#181B22" stroke-width="1.5" stroke-linecap="round" stroke-linejoin="round" x1="3.098" y1="3.097" x2="4.663" y2="3.097"/>
	
		<line clip-path="url(#SVGID_2_)" fill="none" stroke="#181B22" stroke-width="1.5" stroke-linecap="round" stroke-linejoin="round" x1="6.228" y1="3.097" x2="7.793" y2="3.097"/>
	
		<path clip-path="url(#SVGID_2_)" fill="none" stroke="#181B22" stroke-width="1.5" stroke-linecap="round" stroke-linejoin="round" d="
		M25.011,27.358H12.49c-0.433,0-0.783-0.35-0.783-0.782V16.402c0-0.433,0.35-0.782,0.783-0.782h12.521
		c0.432,0,0.783,0.349,0.783,0.782v10.174C25.794,27.008,25.442,27.358,25.011,27.358z"/>
	
		<line clip-path="url(#SVGID_2_)" fill="none" stroke="#181B22" stroke-width="1.5" stroke-linecap="round" stroke-linejoin="round" x1="18.75" y1="22.663" x2="18.75" y2="20.315"/>
	
		<path clip-path="url(#SVGID_2_)" fill="none" stroke="#181B22" stroke-width="1.5" stroke-linecap="round" stroke-linejoin="round" d="
		M14.054,15.62v-2.349c0-2.161,1.752-3.913,3.913-3.913h1.566c2.161,0,3.913,1.752,3.913,3.913v2.349"/>
	
		<line clip-path="url(#SVGID_2_)" fill="none" stroke="#181B22" stroke-width="1.5" stroke-linecap="round" stroke-linejoin="round" x1="17.185" y1="20.315" x2="20.315" y2="20.315"/>
</g>
</svg>
