<?xml version="1.0" encoding="utf-8"?>
<!-- Generator: Adobe Illustrator 16.0.0, SVG Export Plug-In . SVG Version: 6.00 Build 0)  -->
<!DOCTYPE svg PUBLIC "-//W3C//DTD SVG 1.1//EN" "http://www.w3.org/Graphics/SVG/1.1/DTD/svg11.dtd">
<svg version="1.1" id="Layer_1" xmlns="http://www.w3.org/2000/svg" xmlns:xlink="http://www.w3.org/1999/xlink" x="0px" y="0px"
	viewBox="0 0 35.863 37.5" enable-background="new 0 0 35.863 37.5" xml:space="preserve">
<g>
	<defs>
		<rect id="SVGID_1_" width="35.864" height="37.5"/>
	</defs>
	<clipPath id="SVGID_2_">
		<use xlink:href="#SVGID_1_"  overflow="visible"/>
	</clipPath>
	
		<path clip-path="url(#SVGID_2_)" fill="none" stroke="#181B22" stroke-width="1.5" stroke-linecap="round" stroke-linejoin="round" d="
		M17.932,35.932c0,0-13.909-5.729-13.909-15.545V7.295c0,0,8.182-2.455,13.909-6.546c5.729,4.091,13.909,6.546,13.909,6.546v13.091
		C31.841,30.203,17.932,35.932,17.932,35.932z"/>
	
		<path clip-path="url(#SVGID_2_)" fill="none" stroke="#181B22" stroke-width="1.5" stroke-linecap="round" stroke-linejoin="round" d="
		M25.295,0.75c3.148,1.646,6.435,3.015,9.818,4.091v10.596"/>
	
		<path clip-path="url(#SVGID_2_)" fill="none" stroke="#181B22" stroke-width="1.5" stroke-linecap="round" stroke-linejoin="round" d="
		M11.386,36.75c-3.158-1.923-7.257-4.778-9-9"/>
	
		<path clip-path="url(#SVGID_2_)" fill="none" stroke="#181B22" stroke-width="1.5" stroke-linecap="round" stroke-linejoin="round" d="
		M10.568,0.75C7.42,2.396,4.135,3.765,0.75,4.841v10.596"/>
	
		<path clip-path="url(#SVGID_2_)" fill="none" stroke="#181B22" stroke-width="1.5" stroke-linecap="round" stroke-linejoin="round" d="
		M24.478,36.75c3.158-1.923,7.257-5.098,9-9.311"/>
	
		<polygon clip-path="url(#SVGID_2_)" fill="none" stroke="#181B22" stroke-width="1.5" stroke-linecap="round" stroke-linejoin="round" points="
		25.295,14.659 16.295,23.659 10.568,17.931 13.023,15.477 16.254,18.733 22.816,12.172 	"/>
</g>
</svg>
