<?xml version="1.0" encoding="utf-8"?>
<!-- Generator: Adobe Illustrator 16.0.0, SVG Export Plug-In . SVG Version: 6.00 Build 0)  -->
<!DOCTYPE svg PUBLIC "-//W3C//DTD SVG 1.1//EN" "http://www.w3.org/Graphics/SVG/1.1/DTD/svg11.dtd">
<svg version="1.1" id="Layer_1" xmlns="http://www.w3.org/2000/svg" xmlns:xlink="http://www.w3.org/1999/xlink" x="0px" y="0px"
	viewBox="0 0 255 201.316" enable-background="new 0 0 255 201.316" xml:space="preserve">
<g>
	<defs>
		<rect id="SVGID_1_" width="255" height="201.316"/>
	</defs>
	<clipPath id="SVGID_2_">
		<use xlink:href="#SVGID_1_"  overflow="visible"/>
	</clipPath>
	<path clip-path="url(#SVGID_2_)" fill="#181B22" d="M150.987,185.916h-40.898c-0.403,0-0.728-0.324-0.728-0.728
		c0-0.401,0.325-0.728,0.728-0.728h40.898c0.401,0,0.728,0.326,0.728,0.728C151.715,185.591,151.389,185.916,150.987,185.916"/>
	<path clip-path="url(#SVGID_2_)" fill="#181B22" d="M160.125,194.306h-18.276c-0.402,0-0.727-0.324-0.727-0.728
		c0-0.402,0.324-0.728,0.727-0.728h18.276c0.401,0,0.727,0.325,0.727,0.728C160.852,193.982,160.526,194.306,160.125,194.306"/>
	<path clip-path="url(#SVGID_2_)" fill="#FF687D" d="M161.563,189.139c-2.18,0-3.951-1.771-3.951-3.951
		c0-2.178,1.771-3.95,3.951-3.95c2.178,0,3.949,1.772,3.949,3.95C165.513,187.368,163.741,189.139,161.563,189.139 M161.563,182.693
		c-1.377,0-2.496,1.119-2.496,2.495c0,1.377,1.119,2.496,2.496,2.496c1.375,0,2.494-1.119,2.494-2.496
		C164.058,183.812,162.938,182.693,161.563,182.693"/>
	<path clip-path="url(#SVGID_2_)" fill="#181B22" d="M82.822,199.83h-3.086c-0.39,0-0.705-0.314-0.705-0.705
		c0-0.389,0.315-0.703,0.705-0.703h3.086c1.412,0,2.56-1.149,2.56-2.561v-34.95c0-1.411-1.148-2.56-2.56-2.56H63.091
		c-0.89,0-1.696,0.442-2.157,1.183l-4.542,6.871c-0.215,0.324-0.652,0.413-0.976,0.199c-0.324-0.214-0.414-0.651-0.199-0.977
		l4.531-6.854c0.71-1.14,1.962-1.83,3.343-1.83h19.731c2.188,0,3.969,1.78,3.969,3.968v34.95
		C86.792,198.05,85.01,199.83,82.822,199.83"/>
	<path clip-path="url(#SVGID_2_)" fill="#181B22" d="M25.664,164.112H1.946c-1.074,0-1.946-0.873-1.946-1.944v-18.288
		c0-1.074,0.872-1.947,1.946-1.947h13.478c0.667,0,1.3,0.354,1.651,0.919l2.39,3.84c0.098,0.159,0.268,0.254,0.455,0.254h8.388
		c1.073,0,1.945,0.873,1.945,1.945v10.243c0,0.39-0.315,0.706-0.705,0.706c-0.389,0-0.704-0.316-0.704-0.706V148.89
		c0-0.296-0.241-0.537-0.536-0.537H19.92c-0.675,0-1.293-0.342-1.651-0.917l-2.391-3.842c-0.096-0.156-0.271-0.253-0.454-0.253
		H1.946c-0.296,0-0.537,0.242-0.537,0.538v18.288c0,0.296,0.241,0.536,0.537,0.536h23.718c0.39,0,0.705,0.314,0.705,0.705
		C26.369,163.798,26.054,164.112,25.664,164.112"/>
	<path clip-path="url(#SVGID_2_)" fill="#181B22" d="M15.126,182.62c-0.39,0-0.705-0.314-0.705-0.705v-18.081
		c0-0.39,0.315-0.704,0.705-0.704c0.389,0,0.704,0.314,0.704,0.704v18.081C15.831,182.305,15.516,182.62,15.126,182.62"/>
	<path clip-path="url(#SVGID_2_)" fill="#181B22" d="M26.417,186.6h-7.311c-0.389,0-0.704-0.314-0.704-0.704
		s0.315-0.704,0.704-0.704h7.311c0.39,0,0.705,0.314,0.705,0.704S26.808,186.6,26.417,186.6"/>
	<path clip-path="url(#SVGID_2_)" fill="#181B22" d="M15.126,190.581c-2.584,0-4.686-2.103-4.686-4.685
		c0-2.584,2.102-4.685,4.686-4.685s4.685,2.101,4.685,4.685C19.812,188.478,17.71,190.581,15.126,190.581 M15.126,182.62
		c-1.807,0-3.276,1.471-3.276,3.276s1.469,3.276,3.276,3.276c1.807,0,3.276-1.471,3.276-3.276S16.934,182.62,15.126,182.62"/>
	<path clip-path="url(#SVGID_2_)" fill="#181B22" d="M77.002,201.317H29.68c-2.188,0-3.967-1.781-3.967-3.968v-34.951
		c0-2.188,1.779-3.968,3.967-3.968h19.733c1.382,0,2.642,0.699,3.37,1.872l4.488,6.787c0.069,0.11,0.177,0.224,0.353,0.224h19.378
		c2.188,0,3.968,1.779,3.968,3.968v26.068C80.97,199.536,79.19,201.317,77.002,201.317 M29.68,159.838
		c-1.411,0-2.558,1.147-2.558,2.56v34.951c0,1.41,1.147,2.558,2.558,2.558h47.322c1.411,0,2.559-1.147,2.559-2.558v-26.068
		c0-1.411-1.148-2.559-2.559-2.559H57.625c-0.624,0-1.199-0.325-1.539-0.871l-4.488-6.788c-0.48-0.773-1.292-1.225-2.184-1.225
		H29.68z"/>
	<path clip-path="url(#SVGID_2_)" fill="#181B22" d="M73.101,184.799h-13.19c-0.39,0-0.705-0.314-0.705-0.705
		c0-0.39,0.315-0.703,0.705-0.703h13.19c0.39,0,0.705,0.313,0.705,0.703C73.806,184.485,73.491,184.799,73.101,184.799"/>
	<path clip-path="url(#SVGID_2_)" fill="#181B22" d="M73.101,189.218h-13.19c-0.39,0-0.705-0.314-0.705-0.705
		c0-0.39,0.315-0.703,0.705-0.703h13.19c0.39,0,0.705,0.313,0.705,0.703C73.806,188.904,73.491,189.218,73.101,189.218"/>
	<path clip-path="url(#SVGID_2_)" fill="#181B22" d="M64.398,193.637h-4.487c-0.389,0-0.705-0.313-0.705-0.703
		c0-0.391,0.316-0.705,0.705-0.705h4.487c0.389,0,0.705,0.314,0.705,0.705C65.103,193.324,64.787,193.637,64.398,193.637"/>
	<path clip-path="url(#SVGID_2_)" fill="#181B22" d="M53.677,187.107c-1.662,0-3.013-1.35-3.013-3.012s1.351-3.013,3.013-3.013
		c1.661,0,3.012,1.351,3.012,3.013S55.338,187.107,53.677,187.107 M53.677,182.491c-0.885,0-1.604,0.721-1.604,1.604
		c0,0.883,0.719,1.603,1.604,1.603c0.884,0,1.603-0.72,1.603-1.603C55.28,183.211,54.562,182.491,53.677,182.491"/>
	<path clip-path="url(#SVGID_2_)" fill="#181B22" d="M73.112,68.947H35.373c-6.041,0-10.954-4.915-10.954-10.955
		c0-4.383,2.648-8.365,6.646-10.079c-0.103-0.903-0.156-1.803-0.156-2.685c0-13.072,10.639-23.707,23.718-23.707
		c8.039,0,15.408,3.982,19.812,10.679c0.957-0.162,1.937-0.243,2.918-0.243c7.678,0,14.476,4.993,16.802,12.237
		c1.396-0.521,2.872-0.784,4.398-0.784c3.587,0,7.03,1.523,9.448,4.179l-1.043,0.948c-2.149-2.363-5.214-3.718-8.405-3.718
		c-1.599,0-3.134,0.324-4.564,0.964l-0.752,0.337l-0.215-0.794c-1.915-7.043-8.358-11.961-15.669-11.961
		c-1.053,0-2.101,0.103-3.118,0.304l-0.476,0.094l-0.257-0.409c-4.11-6.527-11.168-10.424-18.879-10.424
		c-12.301,0-22.309,10.003-22.309,22.298c0,0.997,0.072,2.02,0.212,3.04l0.077,0.562l-0.531,0.196
		c-3.737,1.378-6.249,4.982-6.249,8.966c0,5.264,4.283,9.546,9.546,9.546h37.739V68.947z"/>
	<rect x="117.151" y="118.594" clip-path="url(#SVGID_2_)" fill="#181B22" width="1.409" height="13.369"/>
	<path clip-path="url(#SVGID_2_)" fill="#181B22" d="M175.554,139.922h-7.045c-0.39,0-0.705-0.313-0.705-0.704
		c0-0.39,0.315-0.703,0.705-0.703h7.045c0.391,0,0.704,0.313,0.704,0.703C176.258,139.609,175.944,139.922,175.554,139.922
		 M161.464,139.922h-7.045c-0.39,0-0.705-0.313-0.705-0.704c0-0.39,0.315-0.703,0.705-0.703h7.045c0.389,0,0.704,0.313,0.704,0.703
		C162.168,139.609,161.853,139.922,161.464,139.922 M147.373,139.922h-7.045c-0.39,0-0.704-0.313-0.704-0.704
		c0-0.39,0.314-0.703,0.704-0.703h7.045c0.39,0,0.705,0.313,0.705,0.703C148.078,139.609,147.763,139.922,147.373,139.922
		 M133.283,139.922h-7.045c-0.389,0-0.705-0.313-0.705-0.704c0-0.39,0.316-0.703,0.705-0.703h7.045c0.39,0,0.705,0.313,0.705,0.703
		C133.988,139.609,133.673,139.922,133.283,139.922"/>
	<path clip-path="url(#SVGID_2_)" fill="#181B22" d="M58.812,153.795c-0.39,0-0.705-0.314-0.705-0.704v-7.045
		c0-0.39,0.315-0.705,0.705-0.705c0.389,0,0.704,0.315,0.704,0.705v7.045C59.516,153.481,59.201,153.795,58.812,153.795
		 M108.345,139.922H101.3c-0.39,0-0.705-0.313-0.705-0.704c0-0.39,0.315-0.703,0.705-0.703h7.045c0.389,0,0.704,0.313,0.704,0.703
		C109.049,139.609,108.734,139.922,108.345,139.922 M94.255,139.922h-7.046c-0.389,0-0.704-0.313-0.704-0.704
		c0-0.39,0.315-0.703,0.704-0.703h7.046c0.389,0,0.704,0.313,0.704,0.703C94.959,139.609,94.644,139.922,94.255,139.922
		 M80.164,139.922h-7.045c-0.389,0-0.704-0.313-0.704-0.704c0-0.39,0.315-0.703,0.704-0.703h7.045c0.39,0,0.705,0.313,0.705,0.703
		C80.869,139.609,80.554,139.922,80.164,139.922 M66.074,139.922h-7.045c-0.39,0-0.705-0.313-0.705-0.704
		c0-0.39,0.315-0.703,0.705-0.703h7.045c0.39,0,0.705,0.313,0.705,0.703C66.779,139.609,66.464,139.922,66.074,139.922"/>
	<path clip-path="url(#SVGID_2_)" fill="#181B22" d="M117.854,149.156c-5.011,0-9.088-4.078-9.088-9.088
		c0-5.014,4.077-9.09,9.088-9.09c5.011,0,9.088,4.076,9.088,9.09C126.942,145.078,122.865,149.156,117.854,149.156 M117.854,132.386
		c-4.234,0-7.68,3.445-7.68,7.682c0,4.233,3.446,7.678,7.68,7.678c4.234,0,7.679-3.444,7.679-7.678
		C125.533,135.832,122.088,132.386,117.854,132.386"/>
	<path clip-path="url(#SVGID_2_)" fill="#181B22" d="M172.128,119.297H66.609c-14.026,0-25.436-11.409-25.436-25.436
		c0-14.024,11.41-25.435,25.436-25.435c1.641,0,3.276,0.157,4.867,0.467c5.46-11.921,17.383-19.591,30.537-19.591
		c0.974,0,1.958,0.043,2.932,0.129c8.203-11.002,21.267-17.558,35.028-17.558c24.106,0,43.721,19.605,43.721,43.703
		c0,0.689-0.019,1.386-0.053,2.086c6.73,4.052,10.893,11.38,10.893,19.23C194.534,109.247,184.482,119.297,172.128,119.297
		 M66.609,69.836c-13.249,0-24.026,10.778-24.026,24.026s10.777,24.027,24.026,24.027h105.519c11.577,0,20.997-9.419,20.997-20.997
		c0-7.493-4.047-14.478-10.563-18.23l-0.377-0.217l0.027-0.435c0.047-0.817,0.072-1.632,0.072-2.434
		c0-23.321-18.98-42.294-42.312-42.294c-13.448,0-26.206,6.469-34.129,17.303l-0.238,0.325l-0.4-0.04
		c-1.057-0.105-2.132-0.159-3.193-0.159c-12.786,0-24.356,7.563-29.481,19.269l-0.231,0.529l-0.564-0.124
		C70.068,70.021,68.342,69.836,66.609,69.836"/>
	<path clip-path="url(#SVGID_2_)" fill="#181B22" d="M122.329,103.064h-8.949c-1.021,0-1.85-0.83-1.85-1.85V85.78h-8.102
		c-0.718,0-1.379-0.422-1.68-1.075c-0.303-0.656-0.194-1.432,0.276-1.979l14.424-16.875c0.706-0.826,2.112-0.823,2.812,0.001
		l14.425,16.876c0.466,0.545,0.574,1.32,0.275,1.975c-0.302,0.655-0.963,1.077-1.683,1.077h-8.1v15.434
		C124.178,102.234,123.348,103.064,122.329,103.064 M117.854,66.611c-0.129,0-0.252,0.057-0.336,0.155l-14.424,16.877
		c-0.113,0.132-0.138,0.316-0.066,0.472c0.071,0.155,0.228,0.256,0.4,0.256h8.806c0.39,0,0.705,0.315,0.705,0.705v16.138
		c0,0.243,0.198,0.44,0.441,0.44h8.949c0.242,0,0.44-0.197,0.44-0.44V85.076c0-0.39,0.315-0.705,0.705-0.705h8.804
		c0.173,0,0.331-0.101,0.402-0.256s0.046-0.341-0.066-0.471l-14.426-16.878C118.104,66.667,117.983,66.611,117.854,66.611"/>
	<path clip-path="url(#SVGID_2_)" fill="#181B22" d="M191.211,150.557h-7.045c-0.389,0-0.705-0.314-0.705-0.703
		c0-0.391,0.316-0.705,0.705-0.705h7.045c0.39,0,0.704,0.314,0.704,0.705C191.915,150.243,191.601,150.557,191.211,150.557
		 M177.121,150.557h-7.045c-0.39,0-0.705-0.314-0.705-0.703c0-0.391,0.315-0.705,0.705-0.705h7.045c0.389,0,0.704,0.314,0.704,0.705
		C177.825,150.243,177.51,150.557,177.121,150.557 M163.031,150.557h-7.045c-0.391,0-0.705-0.314-0.705-0.703
		c0-0.391,0.314-0.705,0.705-0.705h7.045c0.389,0,0.705,0.314,0.705,0.705C163.736,150.243,163.42,150.557,163.031,150.557"/>
	<path clip-path="url(#SVGID_2_)" fill="#181B22" d="M55.78,130.09h-7.045c-0.389,0-0.704-0.314-0.704-0.705
		c0-0.39,0.315-0.703,0.704-0.703h7.045c0.39,0,0.705,0.313,0.705,0.703C56.485,129.776,56.17,130.09,55.78,130.09 M41.69,130.09
		h-7.045c-0.389,0-0.705-0.314-0.705-0.705c0-0.39,0.316-0.703,0.705-0.703h7.045c0.389,0,0.705,0.313,0.705,0.703
		C42.395,129.776,42.079,130.09,41.69,130.09 M27.6,130.09h-7.045c-0.39,0-0.705-0.314-0.705-0.705c0-0.39,0.315-0.703,0.705-0.703
		H27.6c0.39,0,0.705,0.313,0.705,0.703C28.305,129.776,27.99,130.09,27.6,130.09"/>
	<path clip-path="url(#SVGID_2_)" fill="#181B22" d="M226.162,41.837h-29.396c-4.187,0-7.594-3.407-7.594-7.594
		s3.407-7.594,7.594-7.594c0.358,0,0.713,0.025,1.063,0.074c1.762-3.47,5.457-5.629,9.38-5.385c2.389-3.058,6.096-4.872,9.995-4.872
		c6.997,0,12.688,5.69,12.688,12.683c0,0.102-0.001,0.205-0.004,0.308c1.875,1.248,3.024,3.368,3.024,5.63
		C232.912,38.809,229.884,41.837,226.162,41.837 M196.766,28.058c-3.411,0-6.185,2.775-6.185,6.185c0,3.411,2.773,6.185,6.185,6.185
		h29.396c2.945,0,5.341-2.395,5.341-5.341c0-1.905-1.03-3.682-2.688-4.638c-0.231-0.133-0.366-0.386-0.352-0.652
		c0.013-0.217,0.02-0.434,0.02-0.648c0-6.216-5.06-11.274-11.279-11.274c-3.583,0-6.985,1.724-9.098,4.612
		c-0.147,0.202-0.387,0.312-0.639,0.285c-3.618-0.362-7.128,1.69-8.586,5.022c-0.135,0.307-0.46,0.481-0.797,0.405
		C197.657,28.105,197.213,28.058,196.766,28.058"/>
	<path clip-path="url(#SVGID_2_)" fill="#181B22" d="M236.485,48.671h-40.75c-0.39,0-0.704-0.315-0.704-0.705
		c0-0.389,0.314-0.704,0.704-0.704h40.75c0.391,0,0.705,0.315,0.705,0.704C237.19,48.356,236.876,48.671,236.485,48.671"/>
	<path clip-path="url(#SVGID_2_)" fill="#181B22" d="M224.22,124.958c-0.141,0-0.28-0.041-0.403-0.127l-6.358-4.438
		c-0.319-0.224-0.397-0.662-0.175-0.981c0.225-0.32,0.666-0.395,0.981-0.175l6.358,4.439c0.32,0.222,0.397,0.661,0.175,0.979
		C224.66,124.853,224.441,124.958,224.22,124.958"/>
	<path clip-path="url(#SVGID_2_)" fill="#181B22" d="M213.941,115.271c-0.39,0-0.705-0.314-0.705-0.704v-6.835
		c0-0.39,0.315-0.703,0.705-0.703s0.704,0.313,0.704,0.703v6.835C214.646,114.957,214.331,115.271,213.941,115.271"/>
	<path clip-path="url(#SVGID_2_)" fill="#181B22" d="M203.664,124.958c-0.222,0-0.439-0.104-0.578-0.302
		c-0.223-0.318-0.145-0.758,0.175-0.979l6.358-4.439c0.316-0.22,0.757-0.146,0.982,0.175c0.222,0.319,0.144,0.758-0.176,0.981
		l-6.359,4.438C203.944,124.917,203.805,124.958,203.664,124.958"/>
	<path clip-path="url(#SVGID_2_)" fill="#62BE24" d="M213.941,141.327c-2.119,0-3.842-1.723-3.842-3.842
		c0-2.12,1.723-3.843,3.842-3.843s3.843,1.723,3.843,3.843C217.784,139.604,216.061,141.327,213.941,141.327 M213.941,135.05
		c-1.342,0-2.433,1.093-2.433,2.435c0,1.341,1.091,2.433,2.433,2.433c1.341,0,2.435-1.092,2.435-2.433
		C216.376,136.143,215.282,135.05,213.941,135.05"/>
	<path clip-path="url(#SVGID_2_)" fill="#FF687D" d="M183.716,175.837c-0.94,0-1.826-0.366-2.49-1.031l-3.363-3.361
		c-1.373-1.374-1.373-3.61,0-4.983l3.363-3.362c1.329-1.33,3.649-1.331,4.981,0l3.363,3.362c1.372,1.374,1.372,3.609,0,4.983
		l-3.363,3.361C185.541,175.471,184.656,175.837,183.716,175.837 M183.716,163.476c-0.564,0-1.095,0.221-1.494,0.619l-3.362,3.362
		c-0.825,0.825-0.825,2.165,0,2.99l3.362,3.361c0.797,0.8,2.189,0.8,2.988,0l3.363-3.361c0.824-0.825,0.824-2.165,0-2.99
		l-3.363-3.362C184.812,163.698,184.28,163.476,183.716,163.476"/>
	<path clip-path="url(#SVGID_2_)" fill="#FF687D" d="M201.647,175.836c-0.899,0-1.804-0.343-2.49-1.03l-3.361-3.361
		c-1.373-1.374-1.373-3.61,0-4.983l3.361-3.362c1.372-1.372,3.608-1.375,4.982,0l3.362,3.362c1.374,1.373,1.374,3.609,0,4.983
		l-3.362,3.361C203.453,175.494,202.551,175.836,201.647,175.836 M201.649,163.477c-0.542,0-1.083,0.206-1.496,0.618l-3.36,3.362
		c-0.825,0.825-0.825,2.166,0,2.99l3.36,3.361c0.827,0.826,2.166,0.823,2.99,0l3.361-3.361c0.825-0.824,0.825-2.165,0-2.99
		l-3.361-3.362C202.73,163.683,202.19,163.477,201.649,163.477"/>
	<path clip-path="url(#SVGID_2_)" fill="#181B22" d="M41.822,121.863H2.004c-0.39,0-0.705-0.314-0.705-0.704
		s0.315-0.704,0.705-0.704h39.818c0.39,0,0.705,0.314,0.705,0.704S42.212,121.863,41.822,121.863"/>
	<path clip-path="url(#SVGID_2_)" fill="#FFDA68" d="M55.623,7.838c-2.119,0-3.843-1.723-3.843-3.842
		c0-2.119,1.724-3.843,3.843-3.843c2.119,0,3.842,1.724,3.842,3.843C59.465,6.115,57.742,7.838,55.623,7.838 M55.623,1.562
		c-1.341,0-2.434,1.092-2.434,2.434c0,1.342,1.093,2.434,2.434,2.434c1.342,0,2.433-1.092,2.433-2.434
		C58.056,2.654,56.965,1.562,55.623,1.562"/>
	<path clip-path="url(#SVGID_2_)" fill="#181B22" d="M247.179,54.374h-26.841c-0.389,0-0.704-0.315-0.704-0.705
		c0-0.389,0.315-0.704,0.704-0.704h26.841c0.39,0,0.704,0.315,0.704,0.704C247.883,54.059,247.568,54.374,247.179,54.374"/>
	<path clip-path="url(#SVGID_2_)" fill="#181B22" d="M245.507,170.652h-2.078c-0.39,0-0.704-0.314-0.704-0.705
		c0-0.39,0.314-0.703,0.704-0.703h2.078c0.935,0,1.693-0.762,1.693-1.695v-28.14c0-0.936-0.759-1.694-1.693-1.694h-17.482
		c-0.936,0-1.695,0.759-1.695,1.694v2.292c0,0.39-0.315,0.703-0.704,0.703s-0.705-0.313-0.705-0.703v-2.292
		c0-1.712,1.394-3.104,3.104-3.104h17.482c1.71,0,3.104,1.393,3.104,3.104v28.14C248.61,169.259,247.217,170.652,245.507,170.652"/>
	<path clip-path="url(#SVGID_2_)" fill="#181B22" d="M240.348,174.489l-17.896-0.062c-0.916-0.004-1.776-0.365-2.425-1.017
		c-0.646-0.651-1.001-1.516-0.998-2.432l0.072-22.821c0.001-0.389,0.316-0.701,0.704-0.701h0.003
		c0.389,0.001,0.703,0.317,0.701,0.707l-0.071,22.82c-0.004,1.117,0.901,2.028,2.019,2.033l17.894,0.063
		c1.11,0,2.02-0.906,2.024-2.021l0.094-27.227c0.004-1.117-0.901-2.03-2.019-2.034l-13.344-0.036
		c-0.39-0.001-0.704-0.317-0.703-0.707c0.003-0.387,0.316-0.702,0.705-0.702h0.001l13.345,0.036c1.895,0.007,3.43,1.554,3.423,3.449
		l-0.093,27.227C243.777,172.953,242.235,174.489,240.348,174.489"/>
	<path clip-path="url(#SVGID_2_)" fill="#181B22" d="M226.368,149.546h-0.008l-6.562-0.023c-0.266-0.001-0.509-0.152-0.628-0.39
		c-0.063-0.125-0.085-0.265-0.068-0.398c0.001-0.053,0.003-0.177-0.003-0.468c-0.015-0.83,0.313-1.612,0.929-2.2l5.089-4.876
		c0.573-0.547,1.313-0.8,2.086-0.837c0.425,0.004,0.536,0.001,0.564,0.003c0.182-0.011,0.378,0.068,0.515,0.2
		c0.136,0.134,0.216,0.315,0.216,0.506l-0.022,6.383C228.472,148.605,227.527,149.546,226.368,149.546 M220.512,148.117l5.854,0.021
		h0.002c0.384,0,0.697-0.313,0.698-0.698l0.02-5.675c-0.278,0.016-0.649,0.114-0.995,0.444l-5.09,4.876
		C220.638,147.434,220.53,147.82,220.512,148.117"/>
	<path clip-path="url(#SVGID_2_)" fill="#181B22" d="M245.668,68.378c-0.218,0-0.434-0.101-0.571-0.291
		c-0.229-0.316-0.157-0.756,0.158-0.984l6.285-4.552l-6.306-4.922c-0.308-0.239-0.362-0.682-0.123-0.988
		c0.242-0.31,0.683-0.362,0.99-0.122l7.046,5.498c0.173,0.136,0.273,0.347,0.27,0.568c-0.004,0.221-0.111,0.429-0.292,0.558
		l-7.045,5.101C245.956,68.335,245.812,68.378,245.668,68.378"/>
	<path clip-path="url(#SVGID_2_)" fill="#181B22" d="M26.968,99.976c1.263,0,2.288,1.024,2.288,2.288
		c0,1.265-1.025,2.288-2.288,2.288c-1.264,0-2.288-1.023-2.288-2.288C24.68,101,25.705,99.976,26.968,99.976"/>
	<path clip-path="url(#SVGID_2_)" fill="#181B22" d="M252.712,111.819c1.265,0,2.288,1.024,2.288,2.288s-1.023,2.287-2.288,2.287
		c-1.264,0-2.288-1.023-2.288-2.287S251.448,111.819,252.712,111.819"/>
	<path clip-path="url(#SVGID_2_)" fill="#181B22" d="M133.425,168.141c1.263,0,2.288,1.024,2.288,2.288s-1.025,2.287-2.288,2.287
		c-1.264,0-2.288-1.023-2.288-2.287S132.161,168.141,133.425,168.141"/>
	<path clip-path="url(#SVGID_2_)" fill="#181B22" d="M187.97,10.271c1.265,0,2.288,1.024,2.288,2.288
		c0,1.264-1.023,2.288-2.288,2.288c-1.264,0-2.288-1.024-2.288-2.288C185.682,11.295,186.706,10.271,187.97,10.271"/>
	<path clip-path="url(#SVGID_2_)" fill="#181B22" d="M76.163,17.119c1.264,0,2.288,1.024,2.288,2.288
		c0,1.263-1.024,2.288-2.288,2.288c-1.264,0-2.288-1.025-2.288-2.288C73.875,18.143,74.899,17.119,76.163,17.119"/>
	<path clip-path="url(#SVGID_2_)" fill="#181B22" d="M236.112,127.659c-0.39,0-0.704-0.315-0.704-0.705v-7.045
		c0-0.389,0.314-0.704,0.704-0.704s0.705,0.315,0.705,0.704v7.045C236.817,127.343,236.502,127.659,236.112,127.659
		 M236.112,113.569c-0.39,0-0.704-0.315-0.704-0.705v-7.044c0-0.391,0.314-0.706,0.704-0.706s0.705,0.315,0.705,0.706v7.044
		C236.817,113.253,236.502,113.569,236.112,113.569 M236.112,99.479c-0.39,0-0.704-0.316-0.704-0.704v-7.046
		c0-0.389,0.314-0.704,0.704-0.704s0.705,0.315,0.705,0.704v7.046C236.817,99.163,236.502,99.479,236.112,99.479 M232.826,88.676
		h-7.046c-0.39,0-0.704-0.315-0.704-0.705c0-0.389,0.314-0.704,0.704-0.704h7.046c0.389,0,0.704,0.315,0.704,0.704
		C233.53,88.361,233.215,88.676,232.826,88.676 M218.735,88.676h-7.045c-0.39,0-0.705-0.315-0.705-0.705
		c0-0.389,0.315-0.704,0.705-0.704h7.045c0.39,0,0.704,0.315,0.704,0.704C219.439,88.361,219.125,88.676,218.735,88.676
		 M204.645,88.676H197.6c-0.39,0-0.704-0.315-0.704-0.705c0-0.389,0.314-0.704,0.704-0.704h7.045c0.391,0,0.705,0.315,0.705,0.704
		C205.35,88.361,205.035,88.676,204.645,88.676"/>
	<path clip-path="url(#SVGID_2_)" fill="#181B22" d="M105.888,20.062H87.559c-1.085,0-1.969-0.883-1.969-1.969V7.997
		c0-1.086,0.884-1.969,1.969-1.969h7.354l1.67-2.528c0.351-0.565,0.976-0.912,1.661-0.912h7.644c1.085,0,1.967,0.883,1.967,1.969
		v13.536C107.854,19.179,106.973,20.062,105.888,20.062 M87.559,7.437c-0.308,0-0.56,0.251-0.56,0.56v10.096
		c0,0.309,0.252,0.56,0.56,0.56h18.329c0.308,0,0.558-0.251,0.558-0.56V4.557c0-0.309-0.25-0.561-0.558-0.561h-7.644
		c-0.197,0-0.37,0.097-0.475,0.265l-1.753,2.652c-0.201,0.323-0.561,0.524-0.952,0.524H87.559z M94.836,6.142
		c-0.001,0.002-0.004,0.006-0.005,0.009L94.836,6.142z"/>
	<path clip-path="url(#SVGID_2_)" fill="#181B22" d="M152.696,21.453c1.264,0,2.288,1.024,2.288,2.288
		c0,1.264-1.024,2.288-2.288,2.288s-2.288-1.024-2.288-2.288C150.408,22.477,151.433,21.453,152.696,21.453"/>
	<path clip-path="url(#SVGID_2_)" fill="#181B22" d="M160.354,12.76c-0.141,0-0.281-0.042-0.403-0.126l-4.368-3.05
		c-0.319-0.223-0.398-0.661-0.176-0.981c0.227-0.321,0.665-0.395,0.981-0.175l4.369,3.05c0.318,0.222,0.397,0.661,0.175,0.981
		C160.795,12.655,160.575,12.76,160.354,12.76"/>
	<path clip-path="url(#SVGID_2_)" fill="#181B22" d="M153.293,6.105c-0.39,0-0.705-0.315-0.705-0.705V0.705
		c0-0.39,0.315-0.704,0.705-0.704c0.389,0,0.704,0.314,0.704,0.704V5.4C153.997,5.79,153.682,6.105,153.293,6.105"/>
	<path clip-path="url(#SVGID_2_)" fill="#181B22" d="M146.231,12.76c-0.223,0-0.44-0.105-0.578-0.301
		c-0.224-0.32-0.145-0.759,0.175-0.981l4.369-3.05c0.315-0.22,0.757-0.146,0.98,0.175c0.224,0.32,0.145,0.758-0.175,0.981
		l-4.369,3.05C146.512,12.718,146.372,12.76,146.231,12.76"/>
	<path clip-path="url(#SVGID_2_)" fill="#181B22" d="M133.425,26.379c-0.39,0-0.705-0.316-0.705-0.705v-7.045
		c0-0.39,0.315-0.704,0.705-0.704c0.389,0,0.705,0.314,0.705,0.704v7.045C134.13,26.063,133.813,26.379,133.425,26.379
		 M133.425,12.288c-0.39,0-0.705-0.315-0.705-0.704V11.05h-5.102c-0.39,0-0.704-0.315-0.704-0.705c0-0.389,0.314-0.704,0.704-0.704
		h5.807c0.389,0,0.705,0.315,0.705,0.704v1.239C134.13,11.973,133.813,12.288,133.425,12.288 M120.573,11.05h-7.045
		c-0.39,0-0.705-0.315-0.705-0.705c0-0.389,0.315-0.704,0.705-0.704h7.045c0.39,0,0.705,0.315,0.705,0.704
		C121.278,10.735,120.963,11.05,120.573,11.05"/>
</g>
</svg>
