<?xml version="1.0" encoding="utf-8"?>
<!-- Generator: Adobe Illustrator 16.0.0, SVG Export Plug-In . SVG Version: 6.00 Build 0)  -->
<!DOCTYPE svg PUBLIC "-//W3C//DTD SVG 1.1//EN" "http://www.w3.org/Graphics/SVG/1.1/DTD/svg11.dtd">
<svg version="1.1" id="Layer_1" xmlns="http://www.w3.org/2000/svg" xmlns:xlink="http://www.w3.org/1999/xlink" x="0px" y="0px"
	viewBox="0 0 100 100" enable-background="new 0 0 100 100" xml:space="preserve">
<g>
	<defs>
		<rect id="SVGID_1_" width="100" height="100"/>
	</defs>
	<clipPath id="SVGID_2_">
		<use xlink:href="#SVGID_1_"  overflow="visible"/>
	</clipPath>
	
		<path clip-path="url(#SVGID_2_)" fill="none" stroke="#CB6686" stroke-width="2" stroke-linecap="round" stroke-linejoin="round" d="
		M94.739,1H5.26C2.907,1,1,2.907,1,5.261v12.783c0,2.352,1.907,4.261,4.26,4.261h89.479c2.354,0,4.261-1.909,4.261-4.261V5.261
		C99,2.907,97.094,1,94.739,1z"/>
	
		<line clip-path="url(#SVGID_2_)" fill="none" stroke="#CB6686" stroke-width="2" stroke-linecap="round" stroke-linejoin="round" x1="11.652" y1="11.652" x2="20.173" y2="11.652"/>
	
		<line clip-path="url(#SVGID_2_)" fill="none" stroke="#CB6686" stroke-width="2" stroke-linecap="round" stroke-linejoin="round" x1="88.348" y1="11.652" x2="90.479" y2="11.652"/>
	
		<line clip-path="url(#SVGID_2_)" fill="none" stroke="#CB6686" stroke-width="2" stroke-linecap="round" stroke-linejoin="round" x1="77.695" y1="11.652" x2="79.826" y2="11.652"/>
	
		<path clip-path="url(#SVGID_2_)" fill="none" stroke="#CB6686" stroke-width="2" stroke-linecap="round" stroke-linejoin="round" d="
		M5.261,22.305C2.907,22.305,1,24.212,1,26.566v12.782c0,2.353,1.907,4.261,4.261,4.261h89.479c2.354,0,4.261-1.908,4.261-4.261
		V26.566c0-2.354-1.907-4.261-4.261-4.261"/>
	
		<line clip-path="url(#SVGID_2_)" fill="none" stroke="#CB6686" stroke-width="2" stroke-linecap="round" stroke-linejoin="round" x1="11.652" y1="32.956" x2="20.173" y2="32.956"/>
	
		<line clip-path="url(#SVGID_2_)" fill="none" stroke="#CB6686" stroke-width="2" stroke-linecap="round" stroke-linejoin="round" x1="88.348" y1="32.956" x2="90.479" y2="32.956"/>
	
		<line clip-path="url(#SVGID_2_)" fill="none" stroke="#CB6686" stroke-width="2" stroke-linecap="round" stroke-linejoin="round" x1="77.695" y1="32.956" x2="79.826" y2="32.956"/>
	
		<path clip-path="url(#SVGID_2_)" fill="none" stroke="#CB6686" stroke-width="2" stroke-linecap="round" stroke-linejoin="round" d="
		M5.261,43.608C2.907,43.608,1,45.517,1,47.87v12.783c0,2.354,1.907,4.261,4.261,4.261h89.479c2.354,0,4.261-1.907,4.261-4.261
		V47.87c0-2.353-1.907-4.261-4.261-4.261"/>
	
		<line clip-path="url(#SVGID_2_)" fill="none" stroke="#CB6686" stroke-width="2" stroke-linecap="round" stroke-linejoin="round" x1="11.652" y1="54.261" x2="20.173" y2="54.261"/>
	
		<line clip-path="url(#SVGID_2_)" fill="none" stroke="#CB6686" stroke-width="2" stroke-linecap="round" stroke-linejoin="round" x1="88.348" y1="54.261" x2="90.479" y2="54.261"/>
	
		<line clip-path="url(#SVGID_2_)" fill="none" stroke="#CB6686" stroke-width="2" stroke-linecap="round" stroke-linejoin="round" x1="77.695" y1="54.261" x2="79.826" y2="54.261"/>
	
		<line clip-path="url(#SVGID_2_)" fill="none" stroke="#CB6686" stroke-width="2" stroke-linecap="round" stroke-linejoin="round" x1="50" y1="64.913" x2="50" y2="81.956"/>
	
		<line clip-path="url(#SVGID_2_)" fill="none" stroke="#CB6686" stroke-width="2" stroke-linecap="round" stroke-linejoin="round" x1="1" y1="90.479" x2="41.479" y2="90.479"/>
	
		<circle clip-path="url(#SVGID_2_)" fill="none" stroke="#CB6686" stroke-width="2" stroke-linecap="round" stroke-linejoin="round" cx="50" cy="90.479" r="8.521"/>
	
		<line clip-path="url(#SVGID_2_)" fill="none" stroke="#CB6686" stroke-width="2" stroke-linecap="round" stroke-linejoin="round" x1="58.521" y1="90.479" x2="99.001" y2="90.479"/>
</g>
</svg>
