<?xml version="1.0" encoding="utf-8"?>
<!-- Generator: Adobe Illustrator 16.0.0, SVG Export Plug-In . SVG Version: 6.00 Build 0)  -->
<!DOCTYPE svg PUBLIC "-//W3C//DTD SVG 1.1//EN" "http://www.w3.org/Graphics/SVG/1.1/DTD/svg11.dtd">
<svg version="1.1" id="Layer_1" xmlns="http://www.w3.org/2000/svg" xmlns:xlink="http://www.w3.org/1999/xlink" x="0px" y="0px"
	viewBox="0 0 100 100" enable-background="new 0 0 100 100" xml:space="preserve">
<g>
	<defs>
		<rect id="SVGID_1_" width="100" height="100"/>
	</defs>
	<clipPath id="SVGID_2_">
		<use xlink:href="#SVGID_1_"  overflow="visible"/>
	</clipPath>
	
		<path clip-path="url(#SVGID_2_)" fill="none" stroke="#CB6686" stroke-width="2" stroke-linecap="round" stroke-linejoin="round" d="
		M21.981,35.087H5.26c-2.353,0-4.26,1.907-4.26,4.261v12.783c0,2.352,1.907,4.261,4.26,4.261h89.479
		c2.354,0,4.261-1.909,4.261-4.261V39.348c0-2.354-1.907-4.261-4.261-4.261H78.019"/>
	
		<line clip-path="url(#SVGID_2_)" fill="none" stroke="#CB6686" stroke-width="2" stroke-linecap="round" stroke-linejoin="round" x1="11.652" y1="45.739" x2="20.173" y2="45.739"/>
	
		<line clip-path="url(#SVGID_2_)" fill="none" stroke="#CB6686" stroke-width="2" stroke-linecap="round" stroke-linejoin="round" x1="88.348" y1="45.739" x2="90.479" y2="45.739"/>
	
		<line clip-path="url(#SVGID_2_)" fill="none" stroke="#CB6686" stroke-width="2" stroke-linecap="round" stroke-linejoin="round" x1="77.695" y1="45.739" x2="79.826" y2="45.739"/>
	
		<path clip-path="url(#SVGID_2_)" fill="none" stroke="#CB6686" stroke-width="2" stroke-linecap="round" stroke-linejoin="round" d="
		M5.261,56.392C2.907,56.392,1,58.299,1,60.652v12.782c0,2.354,1.907,4.261,4.261,4.261h89.479c2.354,0,4.261-1.907,4.261-4.261
		V60.652c0-2.354-1.907-4.261-4.261-4.261"/>
	
		<line clip-path="url(#SVGID_2_)" fill="none" stroke="#CB6686" stroke-width="2" stroke-linecap="round" stroke-linejoin="round" x1="11.652" y1="67.044" x2="20.173" y2="67.044"/>
	
		<line clip-path="url(#SVGID_2_)" fill="none" stroke="#CB6686" stroke-width="2" stroke-linecap="round" stroke-linejoin="round" x1="88.348" y1="67.044" x2="90.479" y2="67.044"/>
	
		<line clip-path="url(#SVGID_2_)" fill="none" stroke="#CB6686" stroke-width="2" stroke-linecap="round" stroke-linejoin="round" x1="77.695" y1="67.044" x2="79.826" y2="67.044"/>
	
		<path clip-path="url(#SVGID_2_)" fill="none" stroke="#CB6686" stroke-width="2" stroke-linecap="round" stroke-linejoin="round" d="
		M5.261,77.695C2.907,77.695,1,79.604,1,81.956v12.783C1,97.093,2.907,99,5.261,99h89.479C97.093,99,99,97.093,99,94.739V81.956
		c0-2.353-1.907-4.261-4.261-4.261"/>
	
		<line clip-path="url(#SVGID_2_)" fill="none" stroke="#CB6686" stroke-width="2" stroke-linecap="round" stroke-linejoin="round" x1="11.652" y1="88.348" x2="20.173" y2="88.348"/>
	
		<line clip-path="url(#SVGID_2_)" fill="none" stroke="#CB6686" stroke-width="2" stroke-linecap="round" stroke-linejoin="round" x1="88.348" y1="88.348" x2="90.479" y2="88.348"/>
	
		<line clip-path="url(#SVGID_2_)" fill="none" stroke="#CB6686" stroke-width="2" stroke-linecap="round" stroke-linejoin="round" x1="77.695" y1="88.348" x2="79.826" y2="88.348"/>
	
		<path clip-path="url(#SVGID_2_)" fill="none" stroke="#CB6686" stroke-width="2" stroke-linecap="round" stroke-linejoin="round" d="
		M68.322,24c0-1.182-0.124-2.333-0.348-3.45l5.044-3.623l-5.235-8.854l-5.749,2.46c-1.77-1.509-3.836-2.687-6.106-3.446L55.235,1
		H44.764l-0.687,6.067c-2.272,0.759-4.342,1.956-6.111,3.466l-5.75-2.46l-5.235,8.854l5.044,3.623
		c-0.224,1.117-0.348,2.268-0.348,3.45c0,1.181,0.124,2.333,0.348,3.45l-5.044,3.623l5.235,8.853l5.75-2.459
		c1.769,1.509,3.846,2.712,6.118,3.47L44.764,47h10.471l0.692-6.087c2.271-0.759,4.337-1.937,6.106-3.446l5.749,2.459l5.235-8.853
		l-5.044-3.623C68.198,26.333,68.322,25.181,68.322,24z"/>
	
		<ellipse clip-path="url(#SVGID_2_)" fill="none" stroke="#CB6686" stroke-width="2" stroke-linecap="round" stroke-linejoin="round" cx="50" cy="24" rx="7.673" ry="7.667"/>
</g>
</svg>
