<?xml version="1.0" encoding="utf-8"?>
<!-- Generator: Adobe Illustrator 16.0.0, SVG Export Plug-In . SVG Version: 6.00 Build 0)  -->
<!DOCTYPE svg PUBLIC "-//W3C//DTD SVG 1.1//EN" "http://www.w3.org/Graphics/SVG/1.1/DTD/svg11.dtd">
<svg version="1.1" id="Layer_1" xmlns="http://www.w3.org/2000/svg" xmlns:xlink="http://www.w3.org/1999/xlink" x="0px" y="0px"
	 viewBox="0 0 255 201.316" enable-background="new 0 0 255 201.316" xml:space="preserve">
<g>
	<defs>
		<rect id="SVGID_1_" width="255" height="201.316"/>
	</defs>
	<clipPath id="SVGID_2_">
		<use xlink:href="#SVGID_1_"  overflow="visible"/>
	</clipPath>
	<path clip-path="url(#SVGID_2_)" fill="#181B22" d="M53.309,63.992c-17.643,0-31.996-14.353-31.996-31.996
		C21.313,14.354,35.666,0,53.309,0s31.996,14.353,31.996,31.995C85.305,49.639,70.952,63.992,53.309,63.992 M53.309,1.418
		c-16.861,0-30.578,13.716-30.578,30.577c0,16.861,13.717,30.578,30.578,30.578c16.86,0,30.578-13.717,30.578-30.578
		C83.887,15.134,70.169,1.418,53.309,1.418"/>
	<path clip-path="url(#SVGID_2_)" fill="#181B22" d="M53.309,60.084c-15.488,0-28.088-12.601-28.088-28.089
		c0-15.488,12.6-28.087,28.088-28.087c15.487,0,28.088,12.599,28.088,28.087C81.396,47.483,68.796,60.084,53.309,60.084
		 M53.309,5.326c-14.706,0-26.669,11.964-26.669,26.669c0,14.706,11.963,26.67,26.669,26.67s26.669-11.964,26.669-26.67
		C79.978,17.29,68.015,5.326,53.309,5.326"/>
	<path clip-path="url(#SVGID_2_)" fill="#181B22" d="M36.526,17.982c-1.082,0-1.961-0.879-1.961-1.961
		c0-1.081,0.879-1.96,1.961-1.96s1.961,0.879,1.961,1.96C38.487,17.104,37.608,17.982,36.526,17.982 M36.526,15.479
		c-0.299,0-0.542,0.243-0.542,0.542c0,0.299,0.243,0.543,0.542,0.543c0.299,0,0.543-0.244,0.543-0.543
		C37.069,15.723,36.826,15.479,36.526,15.479"/>
	<path clip-path="url(#SVGID_2_)" fill="#181B22" d="M34.788,34.32h-3.769c-0.936,0-1.697-0.761-1.697-1.698v-1.255
		c0-0.935,0.761-1.696,1.697-1.696h3.769c0.935,0,1.696,0.761,1.696,1.696v1.255C36.484,33.56,35.723,34.32,34.788,34.32
		 M31.019,31.089c-0.154,0-0.278,0.125-0.278,0.278v1.255c0,0.154,0.124,0.28,0.278,0.28h3.769c0.153,0,0.278-0.126,0.278-0.28
		v-1.255c0-0.153-0.125-0.278-0.278-0.278H31.019z"/>
	<path clip-path="url(#SVGID_2_)" fill="#181B22" d="M76.338,34.32h-3.769c-0.936,0-1.697-0.761-1.697-1.698v-1.255
		c0-0.935,0.761-1.696,1.697-1.696h3.769c0.935,0,1.696,0.761,1.696,1.696v1.255C78.035,33.56,77.273,34.32,76.338,34.32
		 M72.569,31.089c-0.154,0-0.278,0.125-0.278,0.278v1.255c0,0.154,0.124,0.28,0.278,0.28h3.769c0.153,0,0.278-0.126,0.278-0.28
		v-1.255c0-0.153-0.125-0.278-0.278-0.278H72.569z"/>
	<path clip-path="url(#SVGID_2_)" fill="#181B22" d="M53.309,14.678c-1.282,0-2.325-1.044-2.325-2.327V9.839
		c0-1.281,1.043-2.324,2.325-2.324c1.282,0,2.325,1.043,2.325,2.324v2.512C55.634,13.634,54.591,14.678,53.309,14.678 M53.309,8.933
		c-0.5,0-0.906,0.406-0.906,0.906v2.512c0,0.501,0.406,0.908,0.906,0.908s0.906-0.407,0.906-0.908V9.839
		C54.215,9.339,53.809,8.933,53.309,8.933"/>
	<path clip-path="url(#SVGID_2_)" fill="#181B22" d="M70.653,17.982c-1.081,0-1.96-0.879-1.96-1.961c0-1.081,0.879-1.96,1.96-1.96
		c1.082,0,1.961,0.879,1.961,1.96C72.614,17.104,71.735,17.982,70.653,17.982 M70.653,15.479c-0.299,0-0.542,0.243-0.542,0.542
		c0,0.299,0.243,0.543,0.542,0.543c0.299,0,0.543-0.244,0.543-0.543C71.196,15.723,70.952,15.479,70.653,15.479"/>
	<path clip-path="url(#SVGID_2_)" fill="#181B22" d="M53.309,44.027c-6.634,0-12.031-5.398-12.031-12.032
		c0-6.634,5.397-12.03,12.031-12.03c4.094,0,7.871,2.053,10.101,5.492c0.213,0.33,0.119,0.769-0.209,0.983
		c-0.329,0.209-0.769,0.119-0.981-0.21c-1.968-3.035-5.299-4.847-8.911-4.847c-5.852,0-10.612,4.761-10.612,10.612
		c0,5.853,4.76,10.614,10.612,10.614s10.612-4.761,10.612-10.614c0-0.822-0.094-1.642-0.281-2.438
		c-0.089-0.381,0.147-0.763,0.528-0.851c0.379-0.097,0.764,0.145,0.853,0.527c0.211,0.902,0.319,1.83,0.319,2.762
		C65.34,38.629,59.942,44.027,53.309,44.027"/>
	<path clip-path="url(#SVGID_2_)" fill="#181B22" d="M57.444,32.414c-0.273,0-0.533-0.158-0.65-0.424
		c-0.158-0.359,0.006-0.777,0.364-0.935l17.508-7.685l0.709-0.543l-0.628,0.33c-0.035-0.067-0.114-0.1-0.182-0.074l-18.632,6.549
		c-0.371,0.132-0.774-0.065-0.904-0.433c-0.13-0.37,0.064-0.774,0.434-0.905l18.65-6.556c0.75-0.24,1.535,0.082,1.889,0.759
		c0.203,0.387,0.236,0.844,0.09,1.255c-0.146,0.412-0.46,0.747-0.861,0.919l-17.502,7.683
		C57.636,32.394,57.539,32.414,57.444,32.414"/>
	<path clip-path="url(#SVGID_2_)" fill="#181B22" d="M36.526,49.127c-1.082,0-1.961-0.879-1.961-1.961s0.879-1.961,1.961-1.961
		s1.961,0.879,1.961,1.961S37.608,49.127,36.526,49.127 M36.526,46.623c-0.299,0-0.542,0.244-0.542,0.543
		c0,0.299,0.243,0.543,0.542,0.543c0.299,0,0.543-0.244,0.543-0.543C37.069,46.867,36.826,46.623,36.526,46.623"/>
	<path clip-path="url(#SVGID_2_)" fill="#181B22" d="M70.653,49.127c-1.081,0-1.96-0.879-1.96-1.961s0.879-1.961,1.96-1.961
		c1.082,0,1.961,0.879,1.961,1.961S71.735,49.127,70.653,49.127 M70.653,46.623c-0.299,0-0.542,0.244-0.542,0.543
		c0,0.299,0.243,0.543,0.542,0.543c0.299,0,0.543-0.244,0.543-0.543C71.196,46.867,70.952,46.623,70.653,46.623"/>
	<path clip-path="url(#SVGID_2_)" fill="#181B22" d="M53.309,36.436c-2.448,0-4.44-1.992-4.44-4.441c0-2.447,1.992-4.439,4.44-4.439
		c2.448,0,4.44,1.992,4.44,4.439C57.749,34.444,55.757,36.436,53.309,36.436 M53.309,28.974c-1.666,0-3.021,1.355-3.021,3.021
		s1.355,3.022,3.021,3.022s3.021-1.356,3.021-3.022S54.975,28.974,53.309,28.974"/>
	<path clip-path="url(#SVGID_2_)" fill="#181B22" d="M200.703,201.316c-0.394,0-0.709-0.317-0.709-0.709v-7.063
		c0-0.393,0.315-0.709,0.709-0.709c0.392,0,0.709,0.316,0.709,0.709v7.063C201.412,200.999,201.095,201.316,200.703,201.316"/>
	<path clip-path="url(#SVGID_2_)" fill="#181B22" d="M200.703,183.646c-0.394,0-0.709-0.316-0.709-0.709v-19.538
		c0-0.392,0.315-0.709,0.709-0.709c0.392,0,0.709,0.317,0.709,0.709v19.538C201.412,183.33,201.095,183.646,200.703,183.646"/>
	<path clip-path="url(#SVGID_2_)" fill="#181B22" d="M200.703,193.721c-2.943,0-5.337-2.394-5.337-5.338
		c0-2.943,2.394-5.337,5.337-5.337c2.941,0,5.337,2.394,5.337,5.337C206.04,191.328,203.645,193.721,200.703,193.721
		 M200.703,184.465c-2.16,0-3.918,1.758-3.918,3.918c0,2.161,1.758,3.919,3.918,3.919s3.919-1.758,3.919-3.919
		C204.622,186.223,202.863,184.465,200.703,184.465"/>
	<path clip-path="url(#SVGID_2_)" fill="#181B22" d="M216.729,171.275c-0.393,0-0.709-0.315-0.709-0.709v-7.167
		c0-0.392,0.316-0.709,0.709-0.709s0.71,0.317,0.71,0.709v7.167C217.438,170.959,217.121,171.275,216.729,171.275"/>
	<path clip-path="url(#SVGID_2_)" fill="#181B22" d="M216.729,201.316c-0.393,0-0.709-0.317-0.709-0.709v-19.605
		c0-0.393,0.316-0.709,0.709-0.709s0.71,0.316,0.71,0.709v19.605C217.438,200.999,217.121,201.316,216.729,201.316"/>
	<path clip-path="url(#SVGID_2_)" fill="#181B22" d="M216.729,180.959c-2.942,0-5.337-2.395-5.337-5.338
		c0-2.942,2.395-5.337,5.337-5.337s5.337,2.395,5.337,5.337C222.065,178.565,219.671,180.959,216.729,180.959 M216.729,171.704
		c-2.16,0-3.918,1.758-3.918,3.918c0,2.161,1.758,3.919,3.918,3.919s3.918-1.758,3.918-3.919
		C220.646,173.461,218.889,171.704,216.729,171.704"/>
	<path clip-path="url(#SVGID_2_)" fill="#181B22" d="M232.754,201.316c-0.393,0-0.709-0.317-0.709-0.709v-6.775
		c0-0.392,0.316-0.709,0.709-0.709s0.71,0.317,0.71,0.709v6.775C233.464,200.999,233.146,201.316,232.754,201.316"/>
	<path clip-path="url(#SVGID_2_)" fill="#181B22" d="M232.754,183.793c-0.393,0-0.709-0.317-0.709-0.71v-19.685
		c0-0.392,0.316-0.709,0.709-0.709s0.71,0.317,0.71,0.709v19.685C233.464,183.476,233.146,183.793,232.754,183.793"/>
	<path clip-path="url(#SVGID_2_)" fill="#181B22" d="M232.754,193.721c-2.942,0-5.337-2.394-5.337-5.338
		c0-2.943,2.395-5.337,5.337-5.337s5.337,2.394,5.337,5.337C238.091,191.328,235.696,193.721,232.754,193.721 M232.754,184.465
		c-2.161,0-3.918,1.758-3.918,3.918c0,2.161,1.757,3.919,3.918,3.919c2.16,0,3.918-1.758,3.918-3.919
		C236.672,186.223,234.914,184.465,232.754,184.465"/>
	<path clip-path="url(#SVGID_2_)" fill="#181B22" d="M213.421,85.318h-86.888c-0.392,0-0.709-0.317-0.709-0.709
		c0-0.393,0.317-0.71,0.709-0.71h86.179V64.795c0-1.81-1.475-3.285-3.285-3.285H88.437c-1.812,0-3.286,1.475-3.286,3.285v19.104
		l5.055-0.03c0-0.392,0.318-0.709,0.71-0.709s0.709,0.317,0.709,0.709v0.74c0,0.392-0.317,0.709-0.709,0.709h-6.474
		c-0.392,0-0.709-0.317-0.709-0.709V64.795c0-2.593,2.11-4.703,4.704-4.703h120.99c2.594,0,4.703,2.11,4.703,4.703v19.814
		C214.13,85.001,213.813,85.318,213.421,85.318"/>
	<path clip-path="url(#SVGID_2_)" fill="#181B22" d="M209.427,159.45H88.437c-2.594,0-4.704-2.109-4.704-4.704V84.609
		c0-0.393,0.317-0.71,0.709-0.71h5.765c-0.001-0.01-0.001-0.02-0.001-0.03v-5.917c0-1.492,1.215-2.707,2.706-2.707h31.623
		c1.491,0,2.706,1.215,2.706,2.707v5.947h86.181c0.393,0,0.709,0.317,0.709,0.71v70.137
		C214.13,157.34,212.021,159.45,209.427,159.45 M85.15,85.318v69.428c0,1.812,1.474,3.286,3.286,3.286h120.99
		c1.811,0,3.285-1.475,3.285-3.286V85.318h-86.179c-0.391,0-0.709-0.317-0.709-0.708l-0.002-6.658c0-0.711-0.577-1.289-1.287-1.289
		H92.912c-0.71,0-1.287,0.578-1.287,1.289v5.917c0,0.278-0.162,0.521-0.396,0.636c0.005,0.035,0.008,0.069,0.008,0.104
		c0,0.392-0.317,0.709-0.709,0.709H85.15z"/>
	<path clip-path="url(#SVGID_2_)" fill="#181B22" d="M97.027,72.368c-1.693,0-3.071-1.378-3.071-3.072
		c0-1.692,1.378-3.069,3.071-3.069c1.692,0,3.07,1.377,3.07,3.069C100.098,70.99,98.72,72.368,97.027,72.368 M97.027,67.645
		c-0.911,0-1.652,0.741-1.652,1.651c0,0.912,0.741,1.653,1.652,1.653c0.911,0,1.651-0.741,1.651-1.653
		C98.679,68.386,97.938,67.645,97.027,67.645"/>
	<path clip-path="url(#SVGID_2_)" fill="#181B22" d="M107.007,72.368c-1.693,0-3.07-1.378-3.07-3.072
		c0-1.692,1.377-3.069,3.07-3.069c1.692,0,3.07,1.377,3.07,3.069C110.077,70.99,108.699,72.368,107.007,72.368 M107.007,67.645
		c-0.911,0-1.652,0.741-1.652,1.651c0,0.912,0.741,1.653,1.652,1.653c0.911,0,1.652-0.741,1.652-1.653
		C108.659,68.386,107.918,67.645,107.007,67.645"/>
	<path clip-path="url(#SVGID_2_)" fill="#181B22" d="M116.987,72.368c-1.692,0-3.07-1.378-3.07-3.072
		c0-1.692,1.378-3.069,3.07-3.069c1.693,0,3.07,1.377,3.07,3.069C120.057,70.99,118.68,72.368,116.987,72.368 M116.987,67.645
		c-0.911,0-1.652,0.741-1.652,1.651c0,0.912,0.741,1.653,1.652,1.653c0.911,0,1.652-0.741,1.652-1.653
		C118.639,68.386,117.898,67.645,116.987,67.645"/>
	<path clip-path="url(#SVGID_2_)" fill="#181B22" d="M167.448,85.318h-37.034v-7.2c0-1.492,1.214-2.707,2.706-2.707h31.622
		c1.492,0,2.706,1.215,2.706,2.707V85.318z M131.832,83.899h34.198v-5.781c0-0.711-0.578-1.288-1.288-1.288H133.12
		c-0.71,0-1.288,0.577-1.288,1.288V83.899z"/>
	<path clip-path="url(#SVGID_2_)" fill="#181B22" d="M206.893,85.318h-37.034v-7.2c0-1.492,1.214-2.707,2.706-2.707h31.621
		c1.493,0,2.707,1.215,2.707,2.707V85.318z M171.276,83.899h34.197v-5.781c0-0.711-0.576-1.288-1.288-1.288h-31.621
		c-0.711,0-1.288,0.577-1.288,1.288V83.899z"/>
	<path clip-path="url(#SVGID_2_)" fill="#181B22" d="M108.032,146.083h-7.041c-1.173,0-2.127-0.954-2.127-2.127v-26.729
		c0-1.174,0.954-2.128,2.127-2.128h7.041c1.173,0,2.127,0.954,2.127,2.128v26.729C110.159,145.128,109.205,146.083,108.032,146.083
		 M100.991,116.518c-0.391,0-0.709,0.318-0.709,0.709v26.729c0,0.39,0.318,0.709,0.709,0.709h7.041c0.392,0,0.709-0.319,0.709-0.709
		v-26.729c0-0.391-0.317-0.709-0.709-0.709H100.991z"/>
	<path clip-path="url(#SVGID_2_)" fill="#181B22" d="M123.152,146.083h-6.084c-1.437,0-2.606-1.169-2.606-2.605v-23.874
		c0-1.438,1.169-2.607,2.606-2.607h6.084c1.437,0,2.606,1.169,2.606,2.607v23.874C125.758,144.914,124.589,146.083,123.152,146.083
		 M117.068,118.415c-0.655,0-1.187,0.533-1.187,1.188v23.874c0,0.655,0.532,1.188,1.187,1.188h6.084
		c0.655,0,1.187-0.532,1.187-1.188v-23.874c0-0.655-0.532-1.188-1.187-1.188H117.068z"/>
	<path clip-path="url(#SVGID_2_)" fill="#181B22" d="M154.35,146.083h-6.085c-1.438,0-2.605-1.169-2.605-2.605v-23.874
		c0-1.438,1.168-2.607,2.605-2.607h6.085c1.437,0,2.605,1.169,2.605,2.607v23.874C156.955,144.914,155.786,146.083,154.35,146.083
		 M148.265,118.415c-0.654,0-1.188,0.533-1.188,1.188v23.874c0,0.655,0.533,1.188,1.188,1.188h6.085
		c0.654,0,1.187-0.532,1.187-1.188v-23.874c0-0.655-0.532-1.188-1.187-1.188H148.265z"/>
	<path clip-path="url(#SVGID_2_)" fill="#181B22" d="M169.948,146.083h-6.085c-1.438,0-2.605-1.17-2.605-2.606v-14.391
		c0-1.438,1.168-2.606,2.605-2.606h6.085c1.436,0,2.604,1.169,2.604,2.606v14.391C172.553,144.914,171.384,146.083,169.948,146.083
		 M163.863,127.899c-0.654,0-1.188,0.531-1.188,1.188v14.391c0,0.655,0.533,1.188,1.188,1.188h6.085
		c0.653,0,1.187-0.532,1.187-1.188v-14.391c0-0.656-0.533-1.188-1.187-1.188H163.863z"/>
	<path clip-path="url(#SVGID_2_)" fill="#181B22" d="M138.944,146.083h-6.084c-1.438,0-2.606-1.17-2.606-2.606v-14.391
		c0-1.438,1.169-2.606,2.606-2.606h6.084c1.437,0,2.605,1.169,2.605,2.606v14.391C141.55,144.914,140.381,146.083,138.944,146.083
		 M132.86,127.899c-0.655,0-1.188,0.531-1.188,1.188v14.391c0,0.655,0.533,1.188,1.188,1.188h6.084c0.654,0,1.187-0.532,1.187-1.188
		v-14.391c0-0.656-0.532-1.188-1.187-1.188H132.86z"/>
	<path clip-path="url(#SVGID_2_)" fill="#181B22" d="M185.547,146.083h-6.084c-1.438,0-2.606-1.169-2.606-2.605v-40.946
		c0-1.438,1.169-2.606,2.606-2.606h6.084c1.437,0,2.604,1.169,2.604,2.606v40.946C188.151,144.914,186.983,146.083,185.547,146.083
		 M179.463,101.343c-0.655,0-1.188,0.531-1.188,1.188v40.946c0,0.655,0.533,1.188,1.188,1.188h6.084
		c0.653,0,1.187-0.532,1.187-1.188v-40.946c0-0.656-0.533-1.188-1.187-1.188H179.463z"/>
	<path clip-path="url(#SVGID_2_)" fill="#181B22" d="M201.145,146.083h-6.084c-1.438,0-2.605-1.169-2.605-2.605v-44.74
		c0-1.438,1.168-2.607,2.605-2.607h6.084c1.437,0,2.605,1.169,2.605,2.607v44.74C203.75,144.914,202.581,146.083,201.145,146.083
		 M195.061,97.549c-0.654,0-1.188,0.533-1.188,1.188v44.74c0,0.655,0.533,1.188,1.188,1.188h6.084c0.654,0,1.188-0.532,1.188-1.188
		v-44.74c0-0.655-0.533-1.188-1.188-1.188H195.061z"/>
	<path clip-path="url(#SVGID_2_)" fill="#181B22" d="M203.469,151.812H92.912c-0.392,0-0.709-0.316-0.709-0.709V96.566
		c0-0.393,0.317-0.71,0.709-0.71c0.392,0,0.71,0.317,0.71,0.71v53.827h109.847c0.392,0,0.709,0.317,0.709,0.71
		S203.86,151.812,203.469,151.812"/>
	<path clip-path="url(#SVGID_2_)" fill="#181B22" d="M74.239,123.188H35.584c-0.392,0-0.71-0.315-0.71-0.709
		c0-0.392,0.318-0.709,0.71-0.709h38.655c0.392,0,0.709,0.317,0.709,0.709C74.948,122.873,74.631,123.188,74.239,123.188"/>
	<path clip-path="url(#SVGID_2_)" fill="#181B22" d="M133.577,167.056h-7.093c-0.392,0-0.709-0.316-0.709-0.709
		c0-0.392,0.317-0.709,0.709-0.709h7.093c0.392,0,0.709,0.317,0.709,0.709C134.286,166.74,133.969,167.056,133.577,167.056
		 M119.392,167.056H112.3c-0.392,0-0.709-0.316-0.709-0.709c0-0.392,0.317-0.709,0.709-0.709h7.092c0.392,0,0.71,0.317,0.71,0.709
		C120.102,166.74,119.784,167.056,119.392,167.056 M105.208,167.056h-7.092c-0.392,0-0.71-0.316-0.71-0.709
		c0-0.392,0.318-0.709,0.71-0.709h7.092c0.392,0,0.709,0.317,0.709,0.709C105.917,166.74,105.6,167.056,105.208,167.056"/>
	<path clip-path="url(#SVGID_2_)" fill="#181B22" d="M136.253,53.041c-0.14,0-0.282-0.042-0.405-0.127l-6.173-4.309
		c-0.32-0.224-0.398-0.666-0.175-0.987c0.223-0.322,0.666-0.4,0.987-0.176l6.173,4.308c0.321,0.224,0.399,0.666,0.176,0.988
		C136.697,52.936,136.478,53.041,136.253,53.041"/>
	<path clip-path="url(#SVGID_2_)" fill="#181B22" d="M126.276,43.638c-0.392,0-0.709-0.317-0.709-0.709v-6.634
		c0-0.392,0.317-0.709,0.709-0.709s0.709,0.317,0.709,0.709v6.634C126.985,43.321,126.668,43.638,126.276,43.638"/>
	<path clip-path="url(#SVGID_2_)" fill="#181B22" d="M116.299,53.041c-0.224,0-0.445-0.105-0.583-0.303
		c-0.223-0.322-0.145-0.764,0.176-0.988l6.174-4.308c0.321-0.222,0.763-0.144,0.987,0.176c0.224,0.321,0.145,0.763-0.176,0.987
		l-6.173,4.309C116.582,52.999,116.439,53.041,116.299,53.041"/>
	<path clip-path="url(#SVGID_2_)" fill="#181B22" d="M203.462,22.279c0.074,0.211-0.042,0.438-0.254,0.51
		c-0.03,0.008-0.088,0.023-0.162,0.023h-0.006c-0.074,0-0.183-0.015-0.286-0.081c-0.094-0.058-0.174-0.153-0.232-0.256
		c-0.102-0.211-0.153-0.474-0.153-0.875c-0.007-0.138-0.036-0.234-0.087-0.314c-0.044-0.08-0.132-0.152-0.22-0.212
		c-0.152-0.101-0.344-0.16-0.408-0.175h-0.861v1.584c0,0.219-0.182,0.402-0.409,0.402c-0.226,0-0.401-0.183-0.401-0.402v-4.305
		c0-0.227,0.176-0.402,0.401-0.402h0.007h1.3c0.868,0,1.562,0.701,1.562,1.569c0,0.481-0.218,0.905-0.569,1.197
		c0.096,0.073,0.183,0.16,0.256,0.27c0.146,0.212,0.24,0.482,0.24,0.788c-0.008,0.219,0.016,0.358,0.03,0.431
		C203.324,22.068,203.42,22.155,203.462,22.279 M202.441,19.345c0-0.423-0.336-0.759-0.752-0.759h-0.897v1.504h0.897
		C202.105,20.09,202.441,19.754,202.441,19.345"/>
	<path clip-path="url(#SVGID_2_)" fill="#181B22" d="M204.825,22.353c-0.313-0.321-0.503-0.774-0.503-1.285
		c0-0.496,0.189-0.927,0.503-1.277c0.327-0.343,0.752-0.554,1.255-0.554c0.481,0,0.92,0.211,1.22,0.554
		c0.328,0.35,0.509,0.781,0.509,1.277c0,0.511-0.181,0.964-0.509,1.285c-0.3,0.343-0.738,0.554-1.22,0.554
		C205.577,22.907,205.152,22.695,204.825,22.353 M205.117,21.067c0,0.314,0.095,0.569,0.263,0.773
		c0.182,0.176,0.424,0.271,0.7,0.271c0.256,0,0.488-0.095,0.672-0.271c0.182-0.204,0.284-0.459,0.284-0.773
		c0-0.299-0.103-0.562-0.284-0.759c-0.184-0.16-0.416-0.277-0.672-0.277c-0.276,0-0.519,0.117-0.7,0.277
		C205.212,20.505,205.117,20.769,205.117,21.067"/>
	<path clip-path="url(#SVGID_2_)" fill="#181B22" d="M209.383,22.353c-0.314-0.321-0.504-0.774-0.504-1.285
		c0-0.496,0.189-0.927,0.504-1.277c0.328-0.343,0.751-0.554,1.255-0.554c0.48,0,0.92,0.211,1.219,0.554
		c0.328,0.35,0.51,0.781,0.51,1.277c0,0.511-0.182,0.964-0.51,1.285c-0.299,0.343-0.738,0.554-1.219,0.554
		C210.134,22.907,209.711,22.695,209.383,22.353 M209.675,21.067c0,0.314,0.095,0.569,0.263,0.773
		c0.182,0.176,0.423,0.271,0.7,0.271c0.255,0,0.487-0.095,0.672-0.271c0.181-0.204,0.284-0.459,0.284-0.773
		c0-0.299-0.104-0.562-0.284-0.759c-0.185-0.16-0.417-0.277-0.672-0.277c-0.277,0-0.519,0.117-0.7,0.277
		C209.77,20.505,209.675,20.769,209.675,21.067"/>
	<path clip-path="url(#SVGID_2_)" fill="#181B22" d="M215.108,19.637c0,0.219-0.19,0.402-0.409,0.402h-0.184v2.036
		c0.228,0,0.402,0.182,0.402,0.408c0,0.227-0.175,0.402-0.402,0.402c-0.443,0-0.809-0.365-0.809-0.81V20.04h-0.212
		c-0.228,0-0.402-0.183-0.402-0.402c0-0.226,0.175-0.401,0.402-0.401h0.212v-1.058c0-0.227,0.182-0.402,0.408-0.402
		c0.226,0,0.4,0.175,0.4,0.402v1.058h0.184C214.918,19.236,215.108,19.411,215.108,19.637"/>
	<path clip-path="url(#SVGID_2_)" fill="#181B22" d="M216.325,22.33l1.786-4.254c0.089-0.204,0.321-0.299,0.533-0.211
		c0.198,0.079,0.292,0.32,0.204,0.517l-1.788,4.262c-0.064,0.153-0.218,0.241-0.372,0.241c-0.044,0-0.102-0.007-0.145-0.029
		C216.332,22.775,216.236,22.535,216.325,22.33"/>
	<path clip-path="url(#SVGID_2_)" fill="#181B22" d="M201.945,32.907c-1.475,0-2.673-1.198-2.673-2.673
		c0-1.473,1.198-2.671,2.673-2.671c1.474,0,2.672,1.198,2.672,2.671C204.617,31.709,203.419,32.907,201.945,32.907 M201.945,28.981
		c-0.691,0-1.254,0.562-1.254,1.253c0,0.692,0.563,1.254,1.254,1.254c0.69,0,1.254-0.562,1.254-1.254
		C203.199,29.543,202.636,28.981,201.945,28.981"/>
	<path clip-path="url(#SVGID_2_)" fill="#181B22" d="M224.824,30.944h-14.396c-0.391,0-0.709-0.317-0.709-0.709
		s0.318-0.709,0.709-0.709h14.396c0.392,0,0.709,0.317,0.709,0.709S225.216,30.944,224.824,30.944"/>
	<path clip-path="url(#SVGID_2_)" fill="#181B22" d="M234.097,30.944h-5.517c-0.391,0-0.709-0.317-0.709-0.709
		s0.318-0.709,0.709-0.709h5.517c0.393,0,0.71,0.317,0.71,0.709S234.489,30.944,234.097,30.944"/>
	<path clip-path="url(#SVGID_2_)" fill="#181B22" d="M247.945,30.944h-9.501c-0.393,0-0.709-0.317-0.709-0.709
		s0.316-0.709,0.709-0.709h9.501c0.393,0,0.709,0.317,0.709,0.709S248.338,30.944,247.945,30.944"/>
	<path clip-path="url(#SVGID_2_)" fill="#181B22" d="M201.945,44.146c-1.475,0-2.673-1.198-2.673-2.672
		c0-1.474,1.198-2.671,2.673-2.671c1.474,0,2.672,1.197,2.672,2.671C204.617,42.948,203.419,44.146,201.945,44.146 M201.945,40.221
		c-0.691,0-1.254,0.562-1.254,1.253c0,0.692,0.563,1.254,1.254,1.254c0.69,0,1.254-0.562,1.254-1.254
		C203.199,40.783,202.636,40.221,201.945,40.221"/>
	<path clip-path="url(#SVGID_2_)" fill="#181B22" d="M218.949,42.183h-8.822c-0.392,0-0.709-0.317-0.709-0.709
		s0.317-0.709,0.709-0.709h8.822c0.392,0,0.709,0.317,0.709,0.709S219.341,42.183,218.949,42.183"/>
	<path clip-path="url(#SVGID_2_)" fill="#181B22" d="M239.367,42.183h-16.66c-0.393,0-0.709-0.317-0.709-0.709
		s0.316-0.709,0.709-0.709h16.66c0.392,0,0.709,0.317,0.709,0.709S239.759,42.183,239.367,42.183"/>
	<path clip-path="url(#SVGID_2_)" fill="#181B22" d="M247.644,42.183h-4.858c-0.393,0-0.709-0.317-0.709-0.709
		s0.316-0.709,0.709-0.709h4.858c0.392,0,0.709,0.317,0.709,0.709S248.035,42.183,247.644,42.183"/>
	<path clip-path="url(#SVGID_2_)" fill="#181B22" d="M253.775,12.489c-0.393,0-0.709-0.317-0.709-0.709V2.567
		c0-0.633-0.516-1.148-1.147-1.148H195.66c-0.633,0-1.149,0.515-1.149,1.148v9.213c0,0.392-0.316,0.709-0.709,0.709
		c-0.392,0-0.709-0.317-0.709-0.709V2.567c0-1.416,1.151-2.567,2.567-2.567h56.259c1.415,0,2.566,1.151,2.566,2.567v9.213
		C254.485,12.172,254.168,12.489,253.775,12.489"/>
	<path clip-path="url(#SVGID_2_)" fill="#181B22" d="M251.918,50.079h-56.259c-1.416,0-2.565-1.151-2.565-2.567V11.78
		c0-0.392,0.315-0.709,0.709-0.709h59.973c0.392,0,0.71,0.317,0.71,0.709v35.732C254.485,48.928,253.333,50.079,251.918,50.079
		 M194.512,12.489v35.023c0,0.633,0.516,1.149,1.147,1.149h56.259c0.634,0,1.148-0.516,1.148-1.149V12.489H194.512z"/>
	<path clip-path="url(#SVGID_2_)" fill="#181B22" d="M200.752,4.66c0,0.606-0.491,1.098-1.099,1.098
		c-0.605,0-1.097-0.492-1.097-1.098s0.491-1.098,1.097-1.098C200.261,3.562,200.752,4.054,200.752,4.66"/>
	<path clip-path="url(#SVGID_2_)" fill="#181B22" d="M205.393,4.66c0,0.606-0.491,1.098-1.099,1.098
		c-0.605,0-1.097-0.492-1.097-1.098s0.491-1.098,1.097-1.098C204.901,3.562,205.393,4.054,205.393,4.66"/>
	<path clip-path="url(#SVGID_2_)" fill="#181B22" d="M210.033,4.66c0,0.606-0.491,1.098-1.099,1.098
		c-0.605,0-1.097-0.492-1.097-1.098s0.491-1.098,1.097-1.098C209.542,3.562,210.033,4.054,210.033,4.66"/>
	<path clip-path="url(#SVGID_2_)" fill="#FF687D" d="M230.017,138.468c-0.908,0-1.816-0.345-2.509-1.036l-3.385-3.384
		c-0.669-0.672-1.038-1.563-1.038-2.509c0-0.947,0.369-1.838,1.038-2.507l3.385-3.386c1.34-1.341,3.678-1.341,5.016,0l3.386,3.386
		c0.669,0.669,1.038,1.56,1.038,2.507c0,0.946-0.369,1.837-1.038,2.509l-3.386,3.384
		C231.831,138.124,230.923,138.468,230.017,138.468 M230.017,126.027c-0.569,0-1.104,0.222-1.505,0.623l-3.386,3.386
		c-0.401,0.401-0.623,0.935-0.623,1.504c0,0.568,0.222,1.103,0.623,1.505l3.386,3.385c0.829,0.829,2.179,0.829,3.009,0l3.386-3.385
		c0.401-0.402,0.622-0.937,0.622-1.505c0-0.569-0.221-1.103-0.622-1.504l-3.386-3.386
		C231.119,126.249,230.584,126.027,230.017,126.027"/>
	<path clip-path="url(#SVGID_2_)" fill="#FF687D" d="M248.068,138.468c-0.907,0-1.815-0.345-2.508-1.036l-3.385-3.384
		c-0.669-0.672-1.039-1.563-1.039-2.509c0-0.947,0.37-1.838,1.039-2.507l3.385-3.386c1.383-1.381,3.633-1.384,5.017,0l3.384,3.386
		c0.67,0.669,1.039,1.56,1.039,2.507c0,0.946-0.369,1.837-1.039,2.509l-3.384,3.384
		C249.885,138.124,248.976,138.468,248.068,138.468 M248.069,126.028c-0.545,0-1.091,0.208-1.505,0.622l-3.386,3.386
		c-0.401,0.401-0.623,0.935-0.623,1.504c0,0.568,0.223,1.103,0.623,1.505l3.386,3.385c0.829,0.829,2.18,0.829,3.01,0l3.385-3.385
		c0.401-0.402,0.623-0.937,0.623-1.505c0-0.569-0.221-1.103-0.623-1.504l-3.385-3.386
		C249.159,126.236,248.614,126.028,248.069,126.028"/>
	<path clip-path="url(#SVGID_2_)" fill="#62BE24" d="M63.247,179.437c-2.124,0-3.852-1.728-3.852-3.852
		c0-2.123,1.728-3.853,3.852-3.853s3.852,1.729,3.852,3.853C67.099,177.709,65.371,179.437,63.247,179.437 M63.247,173.151
		c-1.342,0-2.433,1.092-2.433,2.435c0,1.342,1.091,2.433,2.433,2.433c1.342,0,2.434-1.091,2.434-2.433
		C65.681,174.243,64.589,173.151,63.247,173.151"/>
	<path clip-path="url(#SVGID_2_)" fill="#FF687D" d="M97.027,31.7c-2.125,0-3.853-1.729-3.853-3.852
		c0-2.124,1.728-3.852,3.853-3.852c2.123,0,3.851,1.728,3.851,3.852C100.878,29.971,99.15,31.7,97.027,31.7 M97.027,25.414
		c-1.342,0-2.434,1.091-2.434,2.434c0,1.342,1.092,2.434,2.434,2.434c1.341,0,2.433-1.092,2.433-2.434
		C99.46,26.504,98.369,25.414,97.027,25.414"/>
	<path clip-path="url(#SVGID_2_)" fill="#62BE24" d="M174.423,46.512c-2.124,0-3.854-1.729-3.854-3.852
		c0-2.124,1.729-3.852,3.854-3.852s3.852,1.728,3.852,3.852C178.274,44.783,176.547,46.512,174.423,46.512 M174.423,40.226
		c-1.343,0-2.435,1.091-2.435,2.434c0,1.342,1.092,2.433,2.435,2.433c1.342,0,2.434-1.091,2.434-2.433
		C176.856,41.317,175.765,40.226,174.423,40.226"/>
	<path clip-path="url(#SVGID_2_)" fill="#62BE24" d="M33.192,164.124c-0.568,0-1.103-0.222-1.504-0.623l-2.75-2.748
		c-0.829-0.83-0.829-2.181,0-3.011l2.75-2.748c0.804-0.803,2.206-0.803,3.009,0l2.749,2.748c0.83,0.83,0.83,2.181,0,3.011
		l-2.75,2.748C34.296,163.902,33.76,164.124,33.192,164.124 M33.192,155.789c-0.189,0-0.367,0.074-0.501,0.208l-2.75,2.748
		c-0.276,0.277-0.276,0.728,0.001,1.005l2.749,2.748c0.269,0.27,0.735,0.27,1.002,0l2.75-2.748c0.277-0.277,0.277-0.728,0-1.005
		l-2.75-2.748C33.559,155.863,33.382,155.789,33.192,155.789"/>
	<path clip-path="url(#SVGID_2_)" fill="#FFDA68" d="M44.798,164.124c-0.568,0-1.103-0.222-1.504-0.623l-2.75-2.748
		c-0.829-0.83-0.829-2.181-0.001-3.011l2.751-2.748c0.804-0.803,2.206-0.803,3.009,0l2.749,2.748c0.829,0.83,0.829,2.181,0,3.011
		l-2.75,2.748C45.901,163.902,45.366,164.124,44.798,164.124 M44.798,155.789c-0.189,0-0.367,0.074-0.501,0.208l-2.75,2.748
		c-0.276,0.277-0.276,0.728,0.001,1.005l2.749,2.748c0.269,0.27,0.735,0.27,1.001,0l2.751-2.748c0.277-0.277,0.277-0.728,0-1.005
		l-2.75-2.748C45.165,155.863,44.987,155.789,44.798,155.789"/>
	<path clip-path="url(#SVGID_2_)" fill="#181B22" d="M43.054,112.103H36.17c-0.392,0-0.709-0.317-0.709-0.709
		c0-0.393,0.317-0.71,0.709-0.71h6.884c0.392,0,0.71,0.317,0.71,0.71C43.764,111.786,43.446,112.103,43.054,112.103 M29.079,112.103
		h-7.093c-0.392,0-0.709-0.317-0.709-0.709c0-0.393,0.317-0.71,0.709-0.71h7.093c0.391,0,0.709,0.317,0.709,0.71
		C29.788,111.786,29.47,112.103,29.079,112.103 M14.894,112.103H7.802c-0.392,0-0.709-0.317-0.709-0.709
		c0-0.393,0.317-0.71,0.709-0.71h7.092c0.392,0,0.709,0.317,0.709,0.71C15.603,111.786,15.286,112.103,14.894,112.103"/>
	<path clip-path="url(#SVGID_2_)" fill="#181B22" d="M7.801,117.584c-0.152,0-0.306-0.049-0.436-0.15l-7.092-5.535
		c-0.176-0.137-0.277-0.349-0.273-0.572c0.004-0.222,0.113-0.43,0.294-0.562l7.092-5.134c0.317-0.228,0.76-0.159,0.99,0.159
		c0.23,0.317,0.159,0.761-0.159,0.99l-6.328,4.58l6.349,4.954c0.309,0.241,0.363,0.688,0.123,0.997
		C8.22,117.49,8.012,117.584,7.801,117.584"/>
	<path clip-path="url(#SVGID_2_)" fill="#181B22" d="M17.649,129.795c1.272,0,2.303,1.031,2.303,2.304
		c0,1.271-1.031,2.303-2.303,2.303s-2.303-1.031-2.303-2.303C15.347,130.827,16.377,129.795,17.649,129.795"/>
	<path clip-path="url(#SVGID_2_)" fill="#181B22" d="M177.565,171.889c1.271,0,2.303,1.031,2.303,2.304
		c0,1.271-1.031,2.303-2.303,2.303c-1.272,0-2.305-1.031-2.305-2.303C175.261,172.92,176.293,171.889,177.565,171.889"/>
	<path clip-path="url(#SVGID_2_)" fill="#181B22" d="M139.136,16.049c1.271,0,2.303,1.031,2.303,2.303s-1.031,2.303-2.303,2.303
		c-1.272,0-2.304-1.031-2.304-2.303S137.863,16.049,139.136,16.049"/>
	<path clip-path="url(#SVGID_2_)" fill="#181B22" d="M237.382,103.605c1.271,0,2.303,1.031,2.303,2.303
		c0,1.272-1.032,2.304-2.303,2.304c-1.272,0-2.305-1.031-2.305-2.304C235.077,104.636,236.109,103.605,237.382,103.605"/>
	<path clip-path="url(#SVGID_2_)" fill="#181B22" d="M19.953,69.103c1.272,0,2.303,1.031,2.303,2.303s-1.031,2.303-2.303,2.303
		s-2.303-1.031-2.303-2.303S18.681,69.103,19.953,69.103"/>
	<path clip-path="url(#SVGID_2_)" fill="#181B22" d="M38.995,187.608c1.272,0,2.303,1.031,2.303,2.304s-1.031,2.303-2.303,2.303
		s-2.303-1.03-2.303-2.303S37.723,187.608,38.995,187.608"/>
	<path clip-path="url(#SVGID_2_)" fill="#181B22" d="M232.868,72.939c1.271,0,2.303,1.031,2.303,2.304
		c0,1.271-1.032,2.302-2.303,2.302c-1.272,0-2.305-1.031-2.305-2.302C230.563,73.97,231.596,72.939,232.868,72.939"/>
	<path clip-path="url(#SVGID_2_)" fill="#181B22" d="M76.51,149.393c-0.14,0-0.282-0.041-0.405-0.127l-4.398-3.069
		c-0.322-0.225-0.4-0.667-0.176-0.988c0.224-0.321,0.666-0.4,0.987-0.176l4.398,3.07c0.322,0.224,0.4,0.666,0.177,0.987
		C76.954,149.29,76.734,149.393,76.51,149.393"/>
	<path clip-path="url(#SVGID_2_)" fill="#181B22" d="M69.401,142.695c-0.392,0-0.709-0.317-0.709-0.709v-4.728
		c0-0.393,0.317-0.709,0.709-0.709s0.709,0.316,0.709,0.709v4.728C70.11,142.377,69.793,142.695,69.401,142.695"/>
	<path clip-path="url(#SVGID_2_)" fill="#181B22" d="M62.293,149.393c-0.224,0-0.445-0.104-0.583-0.303
		c-0.223-0.321-0.145-0.764,0.176-0.987l4.398-3.07c0.321-0.223,0.764-0.144,0.988,0.176c0.224,0.321,0.146,0.764-0.176,0.988
		l-4.398,3.069C62.576,149.352,62.434,149.393,62.293,149.393"/>
	<path clip-path="url(#SVGID_2_)" fill="#181B22" d="M153.992,54.525c-0.394,0-0.709-0.317-0.709-0.709v-7.092
		c0-0.392,0.315-0.71,0.709-0.71c0.392,0,0.709,0.318,0.709,0.71v7.092C154.701,54.208,154.384,54.525,153.992,54.525
		 M153.992,40.341c-0.394,0-0.709-0.318-0.709-0.71V32.54c0-0.391,0.315-0.709,0.709-0.709c0.392,0,0.709,0.318,0.709,0.709v7.092
		C154.701,40.023,154.384,40.341,153.992,40.341 M153.992,26.157c-0.394,0-0.709-0.317-0.709-0.709v-4.029
		c0-0.393,0.315-0.709,0.709-0.709h3.062c0.393,0,0.709,0.316,0.709,0.709c0,0.392-0.316,0.709-0.709,0.709h-2.353v3.32
		C154.701,25.839,154.384,26.157,153.992,26.157 M185.423,22.127h-7.092c-0.393,0-0.709-0.317-0.709-0.709
		c0-0.393,0.316-0.709,0.709-0.709h7.092c0.392,0,0.71,0.316,0.71,0.709C186.133,21.811,185.814,22.127,185.423,22.127
		 M171.239,22.127h-7.094c-0.391,0-0.709-0.317-0.709-0.709c0-0.393,0.318-0.709,0.709-0.709h7.094c0.392,0,0.709,0.316,0.709,0.709
		C171.948,21.811,171.631,22.127,171.239,22.127"/>
	<path clip-path="url(#SVGID_2_)" fill="#181B22" d="M179.008,186.671h-7.093c-0.393,0-0.709-0.315-0.709-0.709
		c0-0.392,0.316-0.709,0.709-0.709h7.093c0.391,0,0.709,0.317,0.709,0.709C179.717,186.356,179.398,186.671,179.008,186.671
		 M164.822,186.671h-7.093c-0.391,0-0.709-0.315-0.709-0.709c0-0.392,0.318-0.709,0.709-0.709h7.093
		c0.393,0,0.709,0.317,0.709,0.709C165.531,186.356,165.215,186.671,164.822,186.671 M150.639,186.671h-7.092
		c-0.394,0-0.71-0.315-0.71-0.709c0-0.392,0.316-0.709,0.71-0.709h7.092c0.391,0,0.709,0.317,0.709,0.709
		C151.348,186.356,151.029,186.671,150.639,186.671 M140.455,182.671c-0.394,0-0.709-0.316-0.709-0.709v-7.093
		c0-0.391,0.315-0.709,0.709-0.709c0.392,0,0.709,0.318,0.709,0.709v7.093C141.164,182.355,140.847,182.671,140.455,182.671"/>
	<path clip-path="url(#SVGID_2_)" fill="#181B22" d="M80.743,107.303H73.65c-0.392,0-0.709-0.317-0.709-0.709
		c0-0.393,0.317-0.709,0.709-0.709h7.093c0.392,0,0.709,0.316,0.709,0.709C81.452,106.986,81.135,107.303,80.743,107.303
		 M66.558,107.303h-7.092c-0.392,0-0.709-0.317-0.709-0.709c0-0.393,0.317-0.709,0.709-0.709h7.092c0.393,0,0.709,0.316,0.709,0.709
		C67.267,106.986,66.951,107.303,66.558,107.303 M52.91,106.767c-0.392,0-0.709-0.317-0.709-0.709v-7.093
		c0-0.391,0.317-0.709,0.709-0.709s0.709,0.318,0.709,0.709v7.093C53.619,106.45,53.302,106.767,52.91,106.767 M52.91,92.583
		c-0.392,0-0.709-0.318-0.709-0.709v-7.092c0-0.393,0.317-0.71,0.709-0.71s0.709,0.317,0.709,0.71v7.092
		C53.619,92.265,53.302,92.583,52.91,92.583 M52.91,78.399c-0.392,0-0.709-0.317-0.709-0.71v-7.092c0-0.392,0.317-0.709,0.709-0.709
		s0.709,0.317,0.709,0.709v7.092C53.619,78.082,53.302,78.399,52.91,78.399"/>
</g>
</svg>
