<?xml version="1.0" encoding="utf-8"?>
<!-- Generator: Adobe Illustrator 16.0.0, SVG Export Plug-In . SVG Version: 6.00 Build 0)  -->
<!DOCTYPE svg PUBLIC "-//W3C//DTD SVG 1.1//EN" "http://www.w3.org/Graphics/SVG/1.1/DTD/svg11.dtd">
<svg version="1.1" id="Layer_1" xmlns="http://www.w3.org/2000/svg" xmlns:xlink="http://www.w3.org/1999/xlink" x="0px" y="0px"
	viewBox="0 0 255 201.316" enable-background="new 0 0 255 201.316" xml:space="preserve">
<g>
	<defs>
		<rect id="SVGID_1_" width="255" height="201.316"/>
	</defs>
	<clipPath id="SVGID_2_">
		<use xlink:href="#SVGID_1_"  overflow="visible"/>
	</clipPath>
	<path clip-path="url(#SVGID_2_)" fill="#181B22" d="M116.229,58.096c-0.196,0-0.393-0.079-0.536-0.235
		c-0.272-0.296-0.252-0.756,0.043-1.028c9.725-8.945,21.758-14.588,34.799-16.321c0.404-0.051,0.764,0.227,0.817,0.625
		c0.053,0.398-0.228,0.764-0.625,0.817c-12.744,1.693-24.503,7.209-34.007,15.95C116.583,58.033,116.406,58.096,116.229,58.096"/>
	<path clip-path="url(#SVGID_2_)" fill="#181B22" d="M96.439,95.547c-0.034,0-0.07-0.002-0.104-0.008
		c-0.398-0.057-0.674-0.426-0.616-0.823c1.587-11,6.063-21.452,12.943-30.228c0.248-0.314,0.703-0.372,1.021-0.123
		c0.316,0.248,0.371,0.705,0.124,1.021c-6.723,8.576-11.097,18.789-12.649,29.537C97.106,95.286,96.795,95.547,96.439,95.547"/>
	<path clip-path="url(#SVGID_2_)" fill="#181B22" d="M108.37,142.532c-0.222,0-0.44-0.102-0.583-0.291
		c-6.409-8.563-10.589-18.669-12.088-29.228c-0.057-0.397,0.22-0.766,0.617-0.823c0.399-0.058,0.766,0.221,0.823,0.618
		c1.465,10.317,5.55,20.193,11.813,28.56c0.24,0.321,0.174,0.777-0.146,1.019C108.675,142.485,108.521,142.532,108.37,142.532"/>
	<path clip-path="url(#SVGID_2_)" fill="#181B22" d="M151.592,167.486c-0.029,0-0.058-0.001-0.086-0.005
		c-13.943-1.637-27.167-7.971-37.237-17.837c-0.287-0.281-0.291-0.741-0.01-1.029c0.281-0.288,0.74-0.292,1.029-0.009
		c9.84,9.64,22.762,15.831,36.387,17.43c0.399,0.047,0.686,0.408,0.639,0.808C152.27,167.214,151.955,167.486,151.592,167.486"/>
	<path clip-path="url(#SVGID_2_)" fill="#181B22" d="M159.284,63.85c-13.142,0-25.769-3.955-36.514-11.436
		c-0.329-0.229-0.411-0.682-0.181-1.012c0.23-0.331,0.682-0.413,1.012-0.181c10.5,7.31,22.84,11.174,35.683,11.174
		c0.402,0,0.728,0.326,0.728,0.727C160.012,63.524,159.687,63.85,159.284,63.85"/>
	<path clip-path="url(#SVGID_2_)" fill="#181B22" d="M125.554,157.065c-0.246,0-0.485-0.124-0.622-0.35
		c-0.209-0.344-0.1-0.792,0.244-1c9.973-6.059,21.444-9.261,33.174-9.261c0.401,0,0.727,0.325,0.727,0.727
		c0,0.403-0.325,0.729-0.727,0.729c-11.463,0-22.673,3.129-32.419,9.05C125.814,157.031,125.683,157.065,125.554,157.065"/>
	<path clip-path="url(#SVGID_2_)" fill="#181B22" d="M127.349,99.408c-0.011,0-0.021,0-0.033,0
		c-0.401-0.019-0.712-0.358-0.695-0.759c1.185-27.093,11.038-49.725,24.518-56.318c0.362-0.176,0.796-0.026,0.974,0.334
		c0.176,0.361,0.026,0.796-0.334,0.973c-13.017,6.365-22.543,28.499-23.704,55.075C128.058,99.103,127.735,99.408,127.349,99.408"/>
	<path clip-path="url(#SVGID_2_)" fill="#181B22" d="M151.795,166.234c-0.103,0-0.207-0.022-0.307-0.068
		c-13.813-6.439-23.817-29.384-24.892-57.095c-0.015-0.401,0.298-0.739,0.699-0.755c0.405-0.028,0.74,0.297,0.755,0.698
		c1.037,26.757,10.929,49.716,24.054,55.833c0.363,0.169,0.521,0.603,0.352,0.967C152.332,166.078,152.069,166.234,151.795,166.234"
		/>
	<path clip-path="url(#SVGID_2_)" fill="#181B22" d="M154.385,85.233h-0.021c-20.932-0.61-39.747-5.333-50.332-12.636
		c-0.331-0.228-0.415-0.681-0.186-1.011c0.227-0.332,0.68-0.415,1.011-0.186c10.364,7.149,28.887,11.777,49.549,12.378
		c0.4,0.013,0.716,0.348,0.705,0.749C155.099,84.921,154.775,85.233,154.385,85.233"/>
	<path clip-path="url(#SVGID_2_)" fill="#181B22" d="M104.445,135.637c-0.23,0-0.458-0.11-0.599-0.314
		c-0.229-0.33-0.145-0.784,0.186-1.013c10.578-7.297,29.38-12.02,50.295-12.633c0.389,0.015,0.737,0.304,0.749,0.706
		c0.012,0.401-0.305,0.736-0.706,0.749c-20.646,0.605-39.155,5.232-49.513,12.376C104.732,135.595,104.587,135.637,104.445,135.637"
		/>
	<path clip-path="url(#SVGID_2_)" fill="#181B22" d="M159.043,159.291c-0.401,0-0.727-0.325-0.727-0.729v-31.417
		c0-0.402,0.325-0.728,0.727-0.728c0.402,0,0.729,0.325,0.729,0.728v31.417C159.771,158.965,159.445,159.291,159.043,159.291"/>
	<path clip-path="url(#SVGID_2_)" fill="#181B22" d="M159.043,118.433c-0.401,0-0.727-0.325-0.727-0.728V89.152
		c0-0.402,0.325-0.727,0.727-0.727c0.402,0,0.729,0.325,0.729,0.727v28.554C159.771,118.108,159.445,118.433,159.043,118.433"/>
	<path clip-path="url(#SVGID_2_)" fill="#181B22" d="M159.043,80.54c-0.401,0-0.727-0.325-0.727-0.727V49.309
		c0-0.402,0.325-0.727,0.727-0.727c0.402,0,0.729,0.325,0.729,0.727v30.504C159.771,80.215,159.445,80.54,159.043,80.54"/>
	<path clip-path="url(#SVGID_2_)" fill="#181B22" d="M158.922,104.664h-27.125c-0.401,0-0.727-0.325-0.727-0.729
		c0-0.4,0.325-0.727,0.727-0.727h27.125c0.402,0,0.729,0.326,0.729,0.727C159.65,104.338,159.324,104.664,158.922,104.664"/>
	<path clip-path="url(#SVGID_2_)" fill="#181B22" d="M122.855,104.664h-17.801c-0.402,0-0.727-0.325-0.727-0.729
		c0-0.4,0.325-0.727,0.727-0.727h17.801c0.402,0,0.727,0.326,0.727,0.727C123.583,104.338,123.257,104.664,122.855,104.664"/>
	<path clip-path="url(#SVGID_2_)" fill="#181B22" d="M95.786,112.613c-4.784,0-8.677-3.894-8.677-8.678
		c0-4.784,3.893-8.677,8.677-8.677s8.677,3.893,8.677,8.677C104.463,108.719,100.57,112.613,95.786,112.613 M95.786,96.713
		c-3.982,0-7.222,3.24-7.222,7.222c0,3.983,3.24,7.223,7.222,7.223s7.222-3.239,7.222-7.223
		C103.008,99.954,99.768,96.713,95.786,96.713"/>
	<path clip-path="url(#SVGID_2_)" fill="#181B22" d="M158.591,48.712c-4.589,0-8.323-3.734-8.323-8.324
		c0-4.589,3.734-8.323,8.323-8.323c4.59,0,8.324,3.734,8.324,8.323C166.915,44.979,163.181,48.712,158.591,48.712 M158.591,33.521
		c-3.786,0-6.868,3.082-6.868,6.868c0,3.787,3.082,6.869,6.868,6.869c3.788,0,6.869-3.082,6.869-6.869
		C165.46,36.603,162.379,33.521,158.591,33.521"/>
	<path clip-path="url(#SVGID_2_)" fill="#181B22" d="M159.396,175.617c-4.59,0-8.324-3.731-8.324-8.322
		c0-4.589,3.734-8.322,8.324-8.322c4.589,0,8.322,3.733,8.322,8.322C167.718,171.885,163.984,175.617,159.396,175.617
		 M159.396,160.427c-3.788,0-6.869,3.081-6.869,6.867c0,3.787,3.081,6.868,6.869,6.868c3.786,0,6.867-3.081,6.867-6.868
		C166.263,163.508,163.182,160.427,159.396,160.427"/>
	<path clip-path="url(#SVGID_2_)" fill="#181B22" d="M127.229,109.039c-2.814,0-5.103-2.29-5.103-5.104
		c0-2.813,2.289-5.102,5.103-5.102c2.813,0,5.103,2.289,5.103,5.102C132.332,106.749,130.043,109.039,127.229,109.039
		 M127.229,100.288c-2.011,0-3.647,1.637-3.647,3.647c0,2.012,1.636,3.647,3.647,3.647s3.646-1.636,3.646-3.647
		C130.876,101.925,129.24,100.288,127.229,100.288"/>
	<path clip-path="url(#SVGID_2_)" fill="#181B22" d="M159.219,127.438c-2.813,0-5.102-2.289-5.102-5.103
		c0-2.813,2.289-5.102,5.102-5.102c2.813,0,5.104,2.289,5.104,5.102C164.322,125.149,162.032,127.438,159.219,127.438
		 M159.219,118.689c-2.011,0-3.646,1.636-3.646,3.646s1.635,3.646,3.646,3.646s3.647-1.636,3.647-3.646
		S161.229,118.689,159.219,118.689"/>
	<path clip-path="url(#SVGID_2_)" fill="#181B22" d="M159.043,89.676c-2.813,0-5.102-2.289-5.102-5.101
		c0-2.814,2.289-5.103,5.102-5.103c2.813,0,5.104,2.289,5.104,5.103C164.146,87.387,161.856,89.676,159.043,89.676 M159.043,80.927
		c-2.011,0-3.646,1.637-3.646,3.648c0,2.011,1.636,3.646,3.646,3.646c2.012,0,3.647-1.635,3.647-3.646
		C162.69,82.564,161.055,80.927,159.043,80.927"/>
	<path clip-path="url(#SVGID_2_)" fill="#181B22" d="M112.753,66.326c-2.813,0-5.102-2.289-5.102-5.102s2.289-5.102,5.102-5.102
		s5.102,2.289,5.102,5.102S115.566,66.326,112.753,66.326 M112.753,57.577c-2.011,0-3.647,1.637-3.647,3.647
		c0,2.011,1.636,3.647,3.647,3.647c2.011,0,3.647-1.636,3.647-3.647C116.4,59.214,114.764,57.577,112.753,57.577"/>
	<path clip-path="url(#SVGID_2_)" fill="#181B22" d="M111.694,150.946c-2.813,0-5.102-2.289-5.102-5.102
		c0-2.813,2.289-5.103,5.102-5.103s5.102,2.289,5.102,5.103C116.796,148.657,114.507,150.946,111.694,150.946 M111.694,142.197
		c-2.011,0-3.646,1.636-3.646,3.647c0,2.011,1.635,3.646,3.646,3.646c2.011,0,3.647-1.636,3.647-3.646
		C115.341,143.833,113.706,142.197,111.694,142.197"/>
	<path clip-path="url(#SVGID_2_)" fill="#181B22" d="M202.45,58.096c-0.177,0-0.354-0.063-0.492-0.192
		c-9.504-8.741-21.263-14.257-34.007-15.95c-0.398-0.053-0.679-0.419-0.625-0.817c0.052-0.398,0.417-0.676,0.816-0.625
		c13.042,1.733,25.075,7.376,34.8,16.321c0.295,0.272,0.315,0.732,0.043,1.028C202.842,58.017,202.646,58.096,202.45,58.096"/>
	<path clip-path="url(#SVGID_2_)" fill="#181B22" d="M222.24,95.547c-0.354,0-0.667-0.261-0.72-0.624
		c-1.55-10.746-5.924-20.96-12.647-29.537c-0.248-0.316-0.192-0.773,0.123-1.021c0.317-0.249,0.774-0.191,1.021,0.123
		c6.881,8.777,11.356,19.229,12.943,30.228c0.058,0.398-0.219,0.766-0.616,0.823C222.311,95.545,222.274,95.547,222.24,95.547"/>
	<path clip-path="url(#SVGID_2_)" fill="#181B22" d="M210.31,142.532c-0.151,0-0.305-0.047-0.436-0.146
		c-0.32-0.241-0.387-0.697-0.146-1.019c6.263-8.366,10.348-18.242,11.813-28.56c0.057-0.396,0.424-0.67,0.822-0.618
		c0.397,0.058,0.675,0.426,0.618,0.823c-1.501,10.559-5.681,20.664-12.09,29.228C210.75,142.43,210.531,142.532,210.31,142.532"/>
	<path clip-path="url(#SVGID_2_)" fill="#181B22" d="M167.089,167.486c-0.364,0-0.679-0.271-0.722-0.643
		c-0.047-0.399,0.238-0.761,0.638-0.808c13.624-1.599,26.547-7.79,36.387-17.43c0.289-0.283,0.748-0.275,1.029,0.009
		c0.281,0.288,0.276,0.748-0.011,1.029c-10.069,9.866-23.293,16.2-37.236,17.837C167.146,167.485,167.117,167.486,167.089,167.486"
		/>
	<path clip-path="url(#SVGID_2_)" fill="#181B22" d="M159.396,63.85c-0.402,0-0.728-0.326-0.728-0.728
		c0-0.401,0.325-0.727,0.728-0.727c12.843,0,25.182-3.864,35.683-11.174c0.329-0.231,0.783-0.149,1.013,0.181
		s0.148,0.783-0.182,1.012C185.164,59.895,172.537,63.85,159.396,63.85"/>
	<path clip-path="url(#SVGID_2_)" fill="#181B22" d="M193.125,157.065c-0.129,0-0.26-0.034-0.377-0.105
		c-9.745-5.921-20.955-9.05-32.418-9.05c-0.402,0-0.728-0.325-0.728-0.729c0-0.401,0.325-0.727,0.728-0.727
		c11.729,0,23.2,3.202,33.174,9.261c0.343,0.208,0.452,0.656,0.243,1C193.61,156.941,193.371,157.065,193.125,157.065"/>
	<path clip-path="url(#SVGID_2_)" fill="#181B22" d="M191.331,99.408c-0.388,0-0.709-0.306-0.727-0.695
		c-1.16-26.576-10.686-48.709-23.703-55.075c-0.361-0.177-0.511-0.612-0.334-0.973c0.178-0.36,0.614-0.508,0.973-0.334
		c13.481,6.594,23.335,29.225,24.518,56.318c0.019,0.401-0.293,0.74-0.694,0.759C191.353,99.408,191.341,99.408,191.331,99.408"/>
	<path clip-path="url(#SVGID_2_)" fill="#181B22" d="M166.884,166.234c-0.274,0-0.536-0.156-0.659-0.42
		c-0.17-0.364-0.013-0.798,0.352-0.967c13.124-6.117,23.016-29.076,24.054-55.833c0.016-0.4,0.375-0.726,0.755-0.698
		c0.401,0.016,0.714,0.354,0.698,0.755c-1.075,27.711-11.078,50.655-24.893,57.095C167.092,166.211,166.988,166.234,166.884,166.234
		"/>
	<path clip-path="url(#SVGID_2_)" fill="#181B22" d="M164.295,85.233c-0.392,0-0.715-0.312-0.727-0.706
		c-0.012-0.401,0.305-0.736,0.706-0.749c20.662-0.601,39.185-5.229,49.549-12.378c0.329-0.229,0.784-0.146,1.012,0.186
		c0.228,0.33,0.146,0.783-0.186,1.011c-10.585,7.303-29.402,12.026-50.333,12.636H164.295z"/>
	<path clip-path="url(#SVGID_2_)" fill="#181B22" d="M214.235,135.637c-0.143,0-0.286-0.042-0.412-0.129
		c-10.357-7.144-28.867-11.771-49.514-12.376c-0.401-0.013-0.718-0.348-0.706-0.749c0.013-0.402,0.403-0.691,0.748-0.706
		c20.916,0.613,39.719,5.336,50.297,12.633c0.331,0.229,0.414,0.683,0.187,1.013C214.693,135.527,214.466,135.637,214.235,135.637"
		/>
	<path clip-path="url(#SVGID_2_)" fill="#181B22" d="M186.882,104.664h-27.124c-0.402,0-0.728-0.325-0.728-0.729
		c0-0.4,0.325-0.727,0.728-0.727h27.124c0.402,0,0.729,0.326,0.729,0.727C187.61,104.338,187.284,104.664,186.882,104.664"/>
	<path clip-path="url(#SVGID_2_)" fill="#181B22" d="M213.626,104.664h-17.802c-0.402,0-0.728-0.325-0.728-0.729
		c0-0.4,0.325-0.727,0.728-0.727h17.802c0.401,0,0.728,0.326,0.728,0.727C214.354,104.338,214.027,104.664,213.626,104.664"/>
	<path clip-path="url(#SVGID_2_)" fill="#181B22" d="M222.894,112.613c-4.784,0-8.677-3.894-8.677-8.678
		c0-4.784,3.893-8.677,8.677-8.677c4.783,0,8.677,3.893,8.677,8.677C231.57,108.719,227.677,112.613,222.894,112.613
		 M222.894,96.713c-3.982,0-7.223,3.24-7.223,7.222c0,3.983,3.24,7.223,7.223,7.223c3.981,0,7.222-3.239,7.222-7.223
		C230.115,99.954,226.875,96.713,222.894,96.713"/>
	<path clip-path="url(#SVGID_2_)" fill="#181B22" d="M191.45,109.039c-2.813,0-5.102-2.29-5.102-5.104
		c0-2.813,2.288-5.102,5.102-5.102s5.102,2.289,5.102,5.102C196.552,106.749,194.264,109.039,191.45,109.039 M191.45,100.288
		c-2.011,0-3.647,1.637-3.647,3.647c0,2.012,1.637,3.647,3.647,3.647c2.012,0,3.647-1.636,3.647-3.647
		C195.098,101.925,193.462,100.288,191.45,100.288"/>
	<path clip-path="url(#SVGID_2_)" fill="#181B22" d="M205.927,66.326c-2.813,0-5.102-2.289-5.102-5.102s2.289-5.102,5.102-5.102
		c2.813,0,5.102,2.289,5.102,5.102S208.74,66.326,205.927,66.326 M205.927,57.577c-2.011,0-3.646,1.637-3.646,3.647
		c0,2.011,1.636,3.647,3.646,3.647c2.012,0,3.647-1.636,3.647-3.647C209.574,59.214,207.938,57.577,205.927,57.577"/>
	<path clip-path="url(#SVGID_2_)" fill="#181B22" d="M206.984,150.946c-2.813,0-5.102-2.289-5.102-5.102
		c0-2.813,2.289-5.103,5.102-5.103c2.813,0,5.102,2.289,5.102,5.103C212.086,148.657,209.798,150.946,206.984,150.946
		 M206.984,142.197c-2.011,0-3.646,1.636-3.646,3.647c0,2.011,1.635,3.646,3.646,3.646c2.012,0,3.647-1.636,3.647-3.646
		C210.632,143.833,208.996,142.197,206.984,142.197"/>
	<path clip-path="url(#SVGID_2_)" fill="#181B22" d="M241.885,63.165c-0.144,0-0.289-0.042-0.416-0.131l-6.531-4.558
		c-0.329-0.23-0.41-0.683-0.181-1.013c0.229-0.329,0.683-0.41,1.013-0.18l6.532,4.558c0.329,0.23,0.409,0.683,0.18,1.013
		C242.341,63.056,242.114,63.165,241.885,63.165"/>
	<path clip-path="url(#SVGID_2_)" fill="#181B22" d="M231.328,53.216c-0.401,0-0.728-0.326-0.728-0.728v-7.019
		c0-0.402,0.326-0.728,0.728-0.728c0.402,0,0.729,0.326,0.729,0.728v7.019C232.057,52.89,231.73,53.216,231.328,53.216"/>
	<path clip-path="url(#SVGID_2_)" fill="#181B22" d="M220.772,63.165c-0.229,0-0.455-0.109-0.597-0.311
		c-0.229-0.33-0.149-0.783,0.18-1.013l6.531-4.558c0.33-0.228,0.783-0.148,1.013,0.18c0.229,0.33,0.149,0.783-0.181,1.013
		l-6.53,4.558C221.063,63.123,220.916,63.165,220.772,63.165"/>
	<path clip-path="url(#SVGID_2_)" fill="#181B22" d="M47.839,113.884H6.941c-0.403,0-0.728-0.325-0.728-0.729
		c0-0.4,0.325-0.727,0.728-0.727h40.898c0.402,0,0.727,0.326,0.727,0.727C48.566,113.559,48.241,113.884,47.839,113.884"/>
	<path clip-path="url(#SVGID_2_)" fill="#181B22" d="M63.281,123.132h-7.274c-0.402,0-0.727-0.326-0.727-0.729
		c0-0.401,0.325-0.727,0.727-0.727h7.274c0.402,0,0.727,0.325,0.727,0.727C64.008,122.806,63.683,123.132,63.281,123.132
		 M48.733,123.132h-7.274c-0.401,0-0.727-0.326-0.727-0.729c0-0.401,0.326-0.727,0.727-0.727h7.274c0.402,0,0.728,0.325,0.728,0.727
		C49.461,122.806,49.135,123.132,48.733,123.132 M34.186,123.132h-7.274c-0.402,0-0.727-0.326-0.727-0.729
		c0-0.401,0.325-0.727,0.727-0.727h7.274c0.402,0,0.727,0.325,0.727,0.727C34.913,122.806,34.588,123.132,34.186,123.132"/>
	<path clip-path="url(#SVGID_2_)" fill="#181B22" d="M212.818,12.097H171.92c-0.402,0-0.728-0.326-0.728-0.728
		c0-0.401,0.325-0.727,0.728-0.727h40.898c0.401,0,0.727,0.326,0.727,0.727C213.545,11.771,213.22,12.097,212.818,12.097"/>
	<path clip-path="url(#SVGID_2_)" fill="#181B22" d="M221.956,20.487H203.68c-0.402,0-0.728-0.325-0.728-0.727
		c0-0.402,0.325-0.728,0.728-0.728h18.276c0.401,0,0.727,0.326,0.727,0.728C222.683,20.163,222.357,20.487,221.956,20.487"/>
	<path clip-path="url(#SVGID_2_)" fill="#181B22" d="M90.192,66.018H31.448c-2.005,0-3.637-1.632-3.637-3.637V3.637
		C27.811,1.632,29.443,0,31.448,0h58.744c2.005,0,3.637,1.632,3.637,3.637v58.744C93.829,64.386,92.197,66.018,90.192,66.018
		 M31.448,1.455c-1.204,0-2.182,0.979-2.182,2.182v58.744c0,1.203,0.978,2.182,2.182,2.182h58.744c1.203,0,2.182-0.979,2.182-2.182
		V3.637c0-1.203-0.979-2.182-2.182-2.182H31.448z"/>
	<path clip-path="url(#SVGID_2_)" fill="#181B22" d="M78.815,54.64h-35.99c-2.005,0-3.637-1.632-3.637-3.637V15.014
		c0-2.005,1.632-3.637,3.637-3.637h35.99c2.005,0,3.636,1.632,3.636,3.637v35.989C82.451,53.008,80.82,54.64,78.815,54.64
		 M42.825,12.832c-1.203,0-2.182,0.979-2.182,2.182v35.989c0,1.203,0.979,2.182,2.182,2.182h35.99c1.203,0,2.182-0.979,2.182-2.182
		V15.014c0-1.203-0.979-2.182-2.182-2.182H42.825z"/>
	<path clip-path="url(#SVGID_2_)" fill="#181B22" d="M67.437,50.188H54.202c-1.009,0-1.831-0.821-1.831-1.829v-4.045
		c0-0.207-0.168-0.375-0.375-0.375h-5.607c-1.009,0-1.83-0.821-1.83-1.831V17.66c0-1.01,0.821-1.831,1.83-1.831H75.25
		c1.009,0,1.83,0.821,1.83,1.831v24.448c0,1.01-0.821,1.831-1.83,1.831h-5.607c-0.207,0-0.376,0.168-0.376,0.375v4.045
		C69.267,49.367,68.446,50.188,67.437,50.188 M46.389,17.284c-0.207,0-0.375,0.168-0.375,0.376v24.448
		c0,0.208,0.168,0.376,0.375,0.376h5.607c1.009,0,1.83,0.821,1.83,1.83v4.045c0,0.206,0.168,0.375,0.376,0.375h13.235
		c0.207,0,0.375-0.169,0.375-0.375v-4.045c0-1.009,0.822-1.83,1.831-1.83h5.607c0.207,0,0.375-0.168,0.375-0.376V17.66
		c0-0.208-0.168-0.376-0.375-0.376H46.389z"/>
	<path clip-path="url(#SVGID_2_)" fill="#181B22" d="M88.177,8.793c-1.634,0-2.963-1.33-2.963-2.964
		c0-1.634,1.329-2.964,2.963-2.964c1.634,0,2.964,1.33,2.964,2.964C91.141,7.463,89.812,8.793,88.177,8.793 M88.177,4.32
		c-0.832,0-1.509,0.677-1.509,1.509s0.677,1.509,1.509,1.509c0.833,0,1.509-0.677,1.509-1.509S89.01,4.32,88.177,4.32"/>
	<path clip-path="url(#SVGID_2_)" fill="#181B22" d="M34.546,8.793c-1.634,0-2.963-1.33-2.963-2.964
		c0-1.634,1.329-2.964,2.963-2.964s2.964,1.33,2.964,2.964C37.51,7.463,36.18,8.793,34.546,8.793 M34.546,4.32
		c-0.832,0-1.509,0.677-1.509,1.509s0.677,1.509,1.509,1.509s1.509-0.677,1.509-1.509S35.378,4.32,34.546,4.32"/>
	<path clip-path="url(#SVGID_2_)" fill="#181B22" d="M87.635,63.835c-1.634,0-2.964-1.33-2.964-2.964
		c0-1.634,1.33-2.964,2.964-2.964c1.634,0,2.963,1.33,2.963,2.964C90.598,62.505,89.27,63.835,87.635,63.835 M87.635,59.362
		c-0.832,0-1.509,0.677-1.509,1.509s0.677,1.51,1.509,1.51s1.509-0.678,1.509-1.51S88.467,59.362,87.635,59.362"/>
	<path clip-path="url(#SVGID_2_)" fill="#181B22" d="M34.004,63.835c-1.634,0-2.964-1.33-2.964-2.964
		c0-1.634,1.33-2.964,2.964-2.964c1.634,0,2.964,1.33,2.964,2.964C36.968,62.505,35.638,63.835,34.004,63.835 M34.004,59.362
		c-0.833,0-1.509,0.677-1.509,1.509s0.676,1.51,1.509,1.51c0.832,0,1.509-0.678,1.509-1.51S34.836,59.362,34.004,59.362"/>
	<path clip-path="url(#SVGID_2_)" fill="#181B22" d="M48.539,22.239c-0.402,0-0.727-0.325-0.727-0.727V16.87
		c0-0.402,0.325-0.727,0.727-0.727s0.728,0.325,0.728,0.727v4.642C49.267,21.914,48.94,22.239,48.539,22.239"/>
	<path clip-path="url(#SVGID_2_)" fill="#181B22" d="M54.754,22.239c-0.402,0-0.728-0.325-0.728-0.727V16.87
		c0-0.402,0.326-0.727,0.728-0.727s0.727,0.325,0.727,0.727v4.642C55.481,21.914,55.156,22.239,54.754,22.239"/>
	<path clip-path="url(#SVGID_2_)" fill="#181B22" d="M60.97,22.239c-0.402,0-0.728-0.325-0.728-0.727V16.87
		c0-0.402,0.326-0.727,0.728-0.727s0.728,0.325,0.728,0.727v4.642C61.698,21.914,61.372,22.239,60.97,22.239"/>
	<path clip-path="url(#SVGID_2_)" fill="#181B22" d="M67.186,22.239c-0.402,0-0.728-0.325-0.728-0.727V16.87
		c0-0.402,0.326-0.727,0.728-0.727s0.728,0.325,0.728,0.727v4.642C67.914,21.914,67.587,22.239,67.186,22.239"/>
	<path clip-path="url(#SVGID_2_)" fill="#181B22" d="M73.401,22.239c-0.402,0-0.728-0.325-0.728-0.727V16.87
		c0-0.402,0.326-0.727,0.728-0.727s0.728,0.325,0.728,0.727v4.642C74.129,21.914,73.803,22.239,73.401,22.239"/>
	<path clip-path="url(#SVGID_2_)" fill="#181B22" d="M215.78,186.605c-0.102,0-0.205-0.021-0.304-0.066
		c-5.11-2.353-8.411-7.506-8.411-13.13c0-7.967,6.48-14.448,14.447-14.448c7.966,0,14.447,6.481,14.447,14.448
		c0,0.402-0.325,0.727-0.728,0.727s-0.728-0.324-0.728-0.727c0-7.164-5.828-12.993-12.992-12.993
		c-7.165,0-12.993,5.829-12.993,12.993c0,5.057,2.97,9.692,7.565,11.808c0.365,0.168,0.524,0.602,0.356,0.965
		C216.319,186.449,216.056,186.605,215.78,186.605"/>
	<path clip-path="url(#SVGID_2_)" fill="#181B22" d="M235.368,174.425c-0.147,0-0.296-0.045-0.424-0.137l-3.163-2.272
		c-0.327-0.234-0.401-0.689-0.167-1.016c0.233-0.325,0.688-0.401,1.015-0.166l2.639,1.895l2.189-2.405
		c0.27-0.296,0.731-0.317,1.027-0.048c0.298,0.271,0.318,0.731,0.048,1.027l-2.626,2.885
		C235.765,174.344,235.567,174.425,235.368,174.425"/>
	<path clip-path="url(#SVGID_2_)" fill="#181B22" d="M221.607,173.127c-0.402,0-0.728-0.326-0.728-0.729v-7.079
		c0-0.401,0.325-0.727,0.728-0.727s0.729,0.325,0.729,0.727v7.079C222.336,172.801,222.01,173.127,221.607,173.127"/>
	<path clip-path="url(#SVGID_2_)" fill="#181B22" d="M229.626,175.889h-5.667c-0.402,0-0.728-0.326-0.728-0.729
		c0-0.401,0.325-0.727,0.728-0.727h5.667c0.401,0,0.728,0.325,0.728,0.727C230.354,175.563,230.027,175.889,229.626,175.889"/>
	<path clip-path="url(#SVGID_2_)" fill="#181B22" d="M221.607,178.238c-1.697,0-3.078-1.381-3.078-3.076
		c0-1.698,1.381-3.079,3.078-3.079c1.698,0,3.079,1.381,3.079,3.079C224.687,176.857,223.306,178.238,221.607,178.238
		 M221.607,173.538c-0.895,0-1.623,0.729-1.623,1.624c0,0.895,0.729,1.623,1.623,1.623c0.896,0,1.624-0.729,1.624-1.623
		C223.231,174.266,222.504,173.538,221.607,173.538"/>
	<path clip-path="url(#SVGID_2_)" fill="#181B22" d="M105.938,181.413h-19.49c-0.402,0-0.727-0.326-0.727-0.729
		s0.325-0.727,0.727-0.727h19.49c0.402,0,0.728,0.324,0.728,0.727S106.34,181.413,105.938,181.413"/>
	<path clip-path="url(#SVGID_2_)" fill="#181B22" d="M75.443,181.413H55.944c-0.402,0-0.727-0.326-0.727-0.729
		s0.325-0.727,0.727-0.727h19.499c0.402,0,0.727,0.324,0.727,0.727S75.845,181.413,75.443,181.413"/>
	<path clip-path="url(#SVGID_2_)" fill="#181B22" d="M80.717,176.504c-0.402,0-0.728-0.325-0.728-0.729v-26.361
		c0-0.402,0.326-0.728,0.728-0.728s0.727,0.325,0.727,0.728v26.361C81.444,176.179,81.119,176.504,80.717,176.504"/>
	<path clip-path="url(#SVGID_2_)" fill="#181B22" d="M77.59,177.536c-0.194,0-0.388-0.078-0.531-0.23l-11.746-12.534
		c-0.275-0.292-0.26-0.753,0.033-1.027c0.293-0.273,0.755-0.26,1.028,0.033l11.747,12.533c0.275,0.292,0.26,0.753-0.034,1.028
		C77.947,177.47,77.769,177.536,77.59,177.536"/>
	<path clip-path="url(#SVGID_2_)" fill="#181B22" d="M65.363,158.727c-0.165,0-0.332-0.057-0.469-0.171
		c-0.306-0.261-0.345-0.72-0.086-1.026l9.491-11.235c0.258-0.307,0.717-0.347,1.025-0.086c0.307,0.26,0.345,0.718,0.086,1.025
		l-9.49,11.234C65.776,158.64,65.571,158.727,65.363,158.727"/>
	<path clip-path="url(#SVGID_2_)" fill="#181B22" d="M50.572,176.238c-0.166,0-0.333-0.058-0.469-0.173
		c-0.307-0.26-0.345-0.719-0.086-1.024l9.499-11.244c0.258-0.308,0.716-0.347,1.025-0.087c0.306,0.259,0.345,0.718,0.086,1.026
		l-9.499,11.243C50.985,176.15,50.78,176.238,50.572,176.238"/>
	<path clip-path="url(#SVGID_2_)" fill="#181B22" d="M50.209,186.81c-3.316,0-6.014-2.697-6.014-6.013
		c0-3.317,2.698-6.015,6.014-6.015s6.014,2.697,6.014,6.015C56.224,184.113,53.525,186.81,50.209,186.81 M50.209,176.238
		c-2.514,0-4.559,2.046-4.559,4.56c0,2.513,2.045,4.558,4.559,4.558s4.56-2.045,4.56-4.558
		C54.77,178.284,52.724,176.238,50.209,176.238"/>
	<path clip-path="url(#SVGID_2_)" fill="#181B22" d="M96.839,158.973c-0.209,0-0.416-0.089-0.56-0.261l-9.863-11.837
		c-0.257-0.309-0.215-0.768,0.093-1.025c0.31-0.256,0.768-0.214,1.025,0.094l9.863,11.836c0.257,0.31,0.215,0.769-0.093,1.025
		C97.168,158.918,97.003,158.973,96.839,158.973"/>
	<path clip-path="url(#SVGID_2_)" fill="#181B22" d="M111.225,176.238c-0.209,0-0.416-0.09-0.56-0.263l-9.54-11.448
		c-0.257-0.31-0.215-0.769,0.093-1.025c0.31-0.255,0.766-0.215,1.025,0.093l9.54,11.45c0.257,0.308,0.215,0.767-0.093,1.024
		C111.554,176.181,111.389,176.238,111.225,176.238"/>
	<path clip-path="url(#SVGID_2_)" fill="#181B22" d="M83.853,177.536c-0.187,0-0.374-0.072-0.516-0.215
		c-0.283-0.285-0.281-0.745,0.003-1.028l12.614-12.543c0.284-0.284,0.745-0.282,1.029,0.003c0.283,0.285,0.282,0.745-0.003,1.029
		l-12.614,12.542C84.224,177.465,84.039,177.536,83.853,177.536"/>
	<path clip-path="url(#SVGID_2_)" fill="#181B22" d="M62.998,165.869c-2.42,0-4.388-1.968-4.388-4.388s1.968-4.389,4.388-4.389
		s4.389,1.969,4.389,4.389S65.418,165.869,62.998,165.869 M62.998,158.547c-1.617,0-2.934,1.315-2.934,2.934
		c0,1.617,1.317,2.934,2.934,2.934c1.618,0,2.934-1.316,2.934-2.934C65.932,159.863,64.616,158.547,62.998,158.547"/>
	<path clip-path="url(#SVGID_2_)" fill="#181B22" d="M99.375,165.611c-2.42,0-4.389-1.968-4.389-4.388s1.969-4.389,4.389-4.389
		s4.388,1.969,4.388,4.389S101.795,165.611,99.375,165.611 M99.375,158.29c-1.618,0-2.934,1.315-2.934,2.934
		c0,1.617,1.316,2.933,2.934,2.933c1.617,0,2.934-1.315,2.934-2.933C102.31,159.605,100.993,158.29,99.375,158.29"/>
	<path clip-path="url(#SVGID_2_)" fill="#181B22" d="M80.717,149.645c-5.4,0-9.792-4.393-9.792-9.791c0-5.4,4.392-9.793,9.792-9.793
		c5.399,0,9.792,4.393,9.792,9.793C90.509,145.252,86.116,149.645,80.717,149.645 M80.717,131.516c-4.597,0-8.338,3.74-8.338,8.338
		c0,4.597,3.741,8.337,8.338,8.337s8.337-3.74,8.337-8.337C89.054,135.256,85.314,131.516,80.717,131.516"/>
	<path clip-path="url(#SVGID_2_)" fill="#181B22" d="M111.224,186.81c-3.315,0-6.013-2.697-6.013-6.013
		c0-3.317,2.698-6.015,6.013-6.015c3.316,0,6.014,2.697,6.014,6.015C117.238,184.113,114.54,186.81,111.224,186.81 M111.224,176.238
		c-2.514,0-4.559,2.046-4.559,4.56c0,2.513,2.045,4.558,4.559,4.558s4.559-2.045,4.559-4.558
		C115.783,178.284,113.738,176.238,111.224,176.238"/>
	<path clip-path="url(#SVGID_2_)" fill="#181B22" d="M80.717,187.076c-3.316,0-6.014-2.696-6.014-6.013s2.698-6.014,6.014-6.014
		s6.014,2.697,6.014,6.014S84.033,187.076,80.717,187.076 M80.717,176.504c-2.514,0-4.559,2.045-4.559,4.559
		s2.045,4.559,4.559,4.559s4.559-2.045,4.559-4.559S83.231,176.504,80.717,176.504"/>
	<path clip-path="url(#SVGID_2_)" fill="#FFDA68" d="M16.298,84.15c-2.179,0-3.951-1.772-3.951-3.95
		c0-2.179,1.772-3.951,3.951-3.951c2.179,0,3.951,1.772,3.951,3.951C20.25,82.378,18.478,84.15,16.298,84.15 M16.298,77.704
		c-1.376,0-2.496,1.12-2.496,2.496s1.12,2.496,2.496,2.496c1.377,0,2.496-1.12,2.496-2.496S17.675,77.704,16.298,77.704"/>
	<path clip-path="url(#SVGID_2_)" fill="#62BE24" d="M250.257,121.656c-2.178,0-3.95-1.772-3.95-3.95
		c0-2.179,1.772-3.951,3.95-3.951c2.179,0,3.951,1.772,3.951,3.951C254.208,119.883,252.436,121.656,250.257,121.656
		 M250.257,115.209c-1.376,0-2.495,1.119-2.495,2.496c0,1.376,1.119,2.495,2.495,2.495c1.377,0,2.496-1.119,2.496-2.495
		C252.753,116.329,251.634,115.209,250.257,115.209"/>
	<path clip-path="url(#SVGID_2_)" fill="#FF687D" d="M223.394,15.32c-2.178,0-3.95-1.772-3.95-3.95s1.772-3.951,3.95-3.951
		c2.179,0,3.95,1.773,3.95,3.951S225.572,15.32,223.394,15.32 M223.394,8.874c-1.376,0-2.495,1.12-2.495,2.496
		s1.119,2.496,2.495,2.496s2.496-1.12,2.496-2.496S224.77,8.874,223.394,8.874"/>
	<path clip-path="url(#SVGID_2_)" fill="#62BE24" d="M190.587,200.291c-0.972,0-1.886-0.379-2.571-1.066l-3.473-3.471
		c-1.417-1.418-1.417-3.726,0-5.144l3.473-3.473c1.418-1.418,3.724-1.418,5.144,0l3.471,3.473c0.688,0.687,1.066,1.6,1.066,2.57
		c0,0.974-0.379,1.885-1.066,2.573l-3.471,3.471C192.472,199.912,191.559,200.291,190.587,200.291 M190.587,187.529
		c-0.559,0-1.117,0.213-1.543,0.638l-3.472,3.472c-0.852,0.852-0.852,2.235,0,3.085l3.472,3.474c0.825,0.823,2.264,0.822,3.087,0
		l3.471-3.474c0.412-0.412,0.64-0.959,0.64-1.543c0-0.583-0.228-1.13-0.64-1.542l-3.471-3.472
		C191.705,187.742,191.146,187.529,190.587,187.529"/>
	<path clip-path="url(#SVGID_2_)" fill="#FF687D" d="M28.538,163.209c-0.972,0-1.885-0.378-2.571-1.065l-3.472-3.471
		c-1.417-1.418-1.417-3.726,0-5.144l3.472-3.472c1.372-1.374,3.77-1.374,5.142,0l3.472,3.472c1.418,1.418,1.418,3.726,0,5.144
		l-3.472,3.471C30.423,162.832,29.51,163.209,28.538,163.209 M28.538,150.448c-0.583,0-1.131,0.228-1.543,0.639l-3.472,3.472
		c-0.85,0.851-0.85,2.235,0,3.086l3.472,3.472c0.824,0.823,2.262,0.823,3.086,0l3.472-3.472c0.851-0.851,0.851-2.235,0-3.086
		l-3.472-3.472C29.669,150.675,29.121,150.448,28.538,150.448"/>
	<path clip-path="url(#SVGID_2_)" fill="#FFDA68" d="M247.894,146.613c-0.972,0-1.886-0.379-2.572-1.066l-3.472-3.471
		c-1.417-1.418-1.417-3.726,0-5.144l3.472-3.472c1.373-1.374,3.771-1.374,5.144,0l3.472,3.472c1.418,1.418,1.418,3.726,0,5.144
		l-3.472,3.471C249.778,146.234,248.865,146.613,247.894,146.613 M247.894,133.85c-0.584,0-1.131,0.228-1.543,0.64l-3.473,3.471
		c-0.85,0.852-0.85,2.235,0,3.086l3.473,3.472c0.824,0.824,2.262,0.824,3.086,0l3.472-3.472c0.851-0.851,0.851-2.234,0-3.086
		l-3.472-3.471C249.024,134.078,248.477,133.85,247.894,133.85"/>
	<path clip-path="url(#SVGID_2_)" fill="#181B22" d="M8,119.356c-0.156,0-0.314-0.051-0.447-0.154l-7.274-5.677
		c-0.18-0.142-0.283-0.358-0.279-0.586c0.004-0.229,0.115-0.442,0.3-0.576l7.274-5.267c0.326-0.236,0.781-0.162,1.015,0.161
		c0.236,0.327,0.164,0.781-0.161,1.017l-6.49,4.699l6.51,5.081c0.317,0.248,0.373,0.704,0.126,1.021
		C8.432,119.259,8.217,119.356,8,119.356"/>
	<path clip-path="url(#SVGID_2_)" fill="#181B22" d="M237.994,74.583c1.305,0,2.362,1.058,2.362,2.362
		c0,1.305-1.058,2.363-2.362,2.363c-1.304,0-2.361-1.058-2.361-2.363C235.633,75.642,236.69,74.583,237.994,74.583"/>
	<path clip-path="url(#SVGID_2_)" fill="#181B22" d="M4.364,60.76c1.305,0,2.362,1.058,2.362,2.362c0,1.305-1.057,2.363-2.362,2.363
		s-2.362-1.058-2.362-2.363C2.002,61.818,3.059,60.76,4.364,60.76"/>
	<path clip-path="url(#SVGID_2_)" fill="#181B22" d="M151.459,2.37c1.304,0,2.361,1.058,2.361,2.362
		c0,1.305-1.058,2.363-2.361,2.363c-1.305,0-2.363-1.058-2.363-2.363C149.096,3.428,150.154,2.37,151.459,2.37"/>
	<path clip-path="url(#SVGID_2_)" fill="#181B22" d="M68.766,92.458c1.305,0,2.362,1.058,2.362,2.362
		c0,1.305-1.057,2.363-2.362,2.363c-1.305,0-2.362-1.058-2.362-2.363C66.404,93.516,67.461,92.458,68.766,92.458"/>
	<path clip-path="url(#SVGID_2_)" fill="#181B22" d="M42.278,194.944c1.305,0,2.362,1.058,2.362,2.361
		c0,1.306-1.057,2.363-2.362,2.363s-2.362-1.058-2.362-2.363C39.916,196.001,40.973,194.944,42.278,194.944"/>
	<path clip-path="url(#SVGID_2_)" fill="#181B22" d="M50.821,101.408c-0.144,0-0.29-0.043-0.416-0.131l-4.51-3.148
		c-0.33-0.23-0.41-0.683-0.181-1.013c0.229-0.329,0.684-0.411,1.013-0.181l4.511,3.149c0.329,0.23,0.41,0.683,0.18,1.012
		C51.277,101.298,51.05,101.408,50.821,101.408"/>
	<path clip-path="url(#SVGID_2_)" fill="#181B22" d="M43.531,94.535c-0.402,0-0.727-0.325-0.727-0.727V88.96
		c0-0.403,0.325-0.728,0.727-0.728s0.728,0.325,0.728,0.728v4.848C44.259,94.21,43.933,94.535,43.531,94.535"/>
	<path clip-path="url(#SVGID_2_)" fill="#181B22" d="M36.241,101.408c-0.229,0-0.456-0.109-0.597-0.313
		c-0.23-0.329-0.15-0.782,0.18-1.012l4.511-3.149c0.329-0.228,0.784-0.147,1.013,0.181c0.229,0.33,0.149,0.783-0.181,1.013
		l-4.51,3.148C36.53,101.365,36.385,101.408,36.241,101.408"/>
	<path clip-path="url(#SVGID_2_)" fill="#181B22" d="M158.875,201.315h-2.025c-0.402,0-0.728-0.325-0.728-0.726
		c0-0.402,0.325-0.729,0.728-0.729h1.298v-4.52c0-0.402,0.325-0.729,0.728-0.729s0.728,0.326,0.728,0.729v5.248
		C159.603,200.99,159.277,201.315,158.875,201.315 M149.576,201.315h-7.274c-0.401,0-0.728-0.325-0.728-0.726
		c0-0.402,0.326-0.729,0.728-0.729h7.274c0.401,0,0.727,0.326,0.727,0.729C150.303,200.99,149.978,201.315,149.576,201.315
		 M135.028,201.315h-7.274c-0.401,0-0.727-0.325-0.727-0.726c0-0.402,0.325-0.729,0.727-0.729h7.274
		c0.401,0,0.727,0.326,0.727,0.729C135.755,200.99,135.43,201.315,135.028,201.315 M120.48,201.315h-7.273
		c-0.402,0-0.727-0.325-0.727-0.726c0-0.402,0.325-0.729,0.727-0.729h7.273c0.403,0,0.728,0.326,0.728,0.729
		C121.208,200.99,120.883,201.315,120.48,201.315 M105.933,201.315h-7.274c-0.402,0-0.727-0.325-0.727-0.726
		c0-0.402,0.325-0.729,0.727-0.729h7.274c0.402,0,0.728,0.326,0.728,0.729C106.661,200.99,106.335,201.315,105.933,201.315
		 M91.386,201.315h-7.274c-0.402,0-0.728-0.325-0.728-0.726c0-0.402,0.326-0.729,0.728-0.729h7.274c0.402,0,0.727,0.326,0.727,0.729
		C92.113,200.99,91.788,201.315,91.386,201.315 M79.262,198.892c-0.402,0-0.727-0.326-0.727-0.729v-7.272
		c0-0.403,0.325-0.729,0.727-0.729c0.403,0,0.728,0.325,0.728,0.729v7.272C79.99,198.566,79.665,198.892,79.262,198.892
		 M158.875,188.794c-0.402,0-0.728-0.325-0.728-0.729v-7.272c0-0.402,0.325-0.729,0.728-0.729s0.728,0.326,0.728,0.729v7.272
		C159.603,188.469,159.277,188.794,158.875,188.794"/>
	<path clip-path="url(#SVGID_2_)" fill="#181B22" d="M159.396,29.501c-0.402,0-0.728-0.325-0.728-0.727v-6.276
		c-0.219-0.125-0.367-0.361-0.367-0.632c0-0.401,0.326-0.727,0.728-0.727h0.367c0.402,0,0.727,0.326,0.727,0.727v6.908
		C160.122,29.176,159.798,29.501,159.396,29.501 M151.756,22.594h-7.274c-0.402,0-0.728-0.325-0.728-0.728
		c0-0.401,0.325-0.727,0.728-0.727h7.274c0.401,0,0.727,0.326,0.727,0.727C152.482,22.27,152.157,22.594,151.756,22.594
		 M137.207,22.594h-7.273c-0.402,0-0.728-0.325-0.728-0.728c0-0.401,0.325-0.727,0.728-0.727h7.273c0.402,0,0.728,0.326,0.728,0.727
		C137.935,22.27,137.609,22.594,137.207,22.594 M122.659,22.594h-7.273c-0.402,0-0.728-0.325-0.728-0.728
		c0-0.401,0.326-0.727,0.728-0.727h7.273c0.403,0,0.728,0.326,0.728,0.727C123.387,22.27,123.063,22.594,122.659,22.594
		 M108.112,22.594h-7.273c-0.403,0-0.728-0.325-0.728-0.728c0-0.401,0.325-0.727,0.728-0.727h7.273c0.402,0,0.728,0.326,0.728,0.727
		C108.84,22.27,108.514,22.594,108.112,22.594"/>
</g>
</svg>
