<?xml version="1.0" encoding="utf-8"?>
<!-- Generator: Adobe Illustrator 23.0.3, SVG Export Plug-In . SVG Version: 6.00 Build 0)  -->
<svg version="1.1" id="Layer_1" xmlns="http://www.w3.org/2000/svg" xmlns:xlink="http://www.w3.org/1999/xlink" x="0px" y="0px"
	 viewBox="0 0 24 24" style="enable-background:new 0 0 24 24;" xml:space="preserve">
<style type="text/css">
	.st0{fill:#FF687D;}
	.st1{fill:#FFFFFF;}
	.st2{fill:#181B22;}
</style>
<g>
	<path class="st0" d="M20.2,7.7c-2.1,0-3.8-1.7-3.8-3.8c0-1,0.4-1.9,1-2.6C15.7,0.5,13.9,0,12,0C5.4,0,0,5.4,0,12s5.4,12,12,12
		c6.6,0,12-5.4,12-12c0-1.9-0.5-3.7-1.3-5.3C22.1,7.3,21.2,7.7,20.2,7.7z"/>
	<path class="st1" d="M16.6,7.5c0.9,0.9,1.3,2.1,1.3,3.8v6.6h-3.3v-6.1c0-0.9-0.2-1.6-0.6-2c-0.4-0.4-1-0.7-1.7-0.7
		c-0.8,0-1.5,0.3-2,0.8c-0.5,0.5-0.7,1.3-0.7,2.3v5.7H6.1V6.3h3.2v1.3c0.4-0.5,1-0.9,1.6-1.1c0.7-0.3,1.4-0.4,2.2-0.4
		C14.5,6.2,15.7,6.6,16.6,7.5z"/>
	<circle class="st2" cx="20.2" cy="3.8" r="3.1"/>
</g>
</svg>
