<?xml version="1.0" encoding="utf-8"?>
<!-- Generator: Adobe Illustrator 16.0.0, SVG Export Plug-In . SVG Version: 6.00 Build 0)  -->
<!DOCTYPE svg PUBLIC "-//W3C//DTD SVG 1.1//EN" "http://www.w3.org/Graphics/SVG/1.1/DTD/svg11.dtd">
<svg version="1.1" id="Layer_1" xmlns="http://www.w3.org/2000/svg" xmlns:xlink="http://www.w3.org/1999/xlink" x="0px" y="0px"
	viewBox="0 0 142.139 24.73" enable-background="new 0 0 142.139 24.73" xml:space="preserve">
<g>
	<path fill="#FFFFFF" d="M14.655,9.91c1.23,1.2,1.845,2.98,1.845,5.34v9.24h-4.68v-8.52c0-1.28-0.28-2.235-0.84-2.865
		c-0.56-0.63-1.37-0.945-2.43-0.945c-1.18,0-2.12,0.365-2.82,1.095c-0.701,0.73-1.05,1.815-1.05,3.255v7.98H0V8.351h4.47v1.89
		c0.62-0.68,1.39-1.205,2.31-1.575S8.709,8.11,9.81,8.11C11.81,8.11,13.425,8.71,14.655,9.91z"/>
	<path fill="#FFFFFF" d="M33,9.896c1.339,1.189,2.01,2.984,2.01,5.385v9.21h-4.38v-2.01c-0.88,1.5-2.52,2.25-4.92,2.25
		c-1.24,0-2.315-0.21-3.225-0.63c-0.91-0.42-1.605-1-2.085-1.74s-0.72-1.58-0.72-2.521c0-1.5,0.565-2.68,1.695-3.54
		c1.129-0.859,2.875-1.29,5.235-1.29h3.72c0-1.02-0.31-1.805-0.93-2.354c-0.62-0.55-1.55-0.825-2.79-0.825
		c-0.86,0-1.706,0.135-2.535,0.405c-0.83,0.27-1.535,0.635-2.115,1.095l-1.68-3.27c0.88-0.62,1.935-1.1,3.165-1.44
		c1.23-0.34,2.495-0.51,3.795-0.51C29.74,8.11,31.66,8.705,33,9.896z M29.01,21.025c0.62-0.37,1.06-0.915,1.32-1.635v-1.65h-3.21
		c-1.92,0-2.88,0.63-2.88,1.89c0,0.601,0.235,1.075,0.705,1.426c0.47,0.35,1.115,0.524,1.935,0.524
		C27.68,21.58,28.39,21.396,29.01,21.025z"/>
	<path fill="#FFFFFF" d="M49.649,23.71c-0.46,0.341-1.025,0.596-1.695,0.766c-0.67,0.169-1.375,0.255-2.115,0.255
		c-1.92,0-3.405-0.49-4.455-1.471c-1.05-0.979-1.575-2.419-1.575-4.319v-6.63h-2.49V8.71h2.49V4.78h4.68v3.93h4.02v3.601h-4.02
		v6.569c0,0.681,0.175,1.205,0.525,1.575c0.35,0.37,0.845,0.555,1.485,0.555c0.74,0,1.37-0.199,1.89-0.6L49.649,23.71z"/>
	<path fill="#FFFFFF" d="M52.529,5.351c-0.54-0.5-0.81-1.12-0.81-1.86c0-0.739,0.27-1.359,0.81-1.86c0.54-0.499,1.24-0.75,2.1-0.75
		c0.86,0,1.56,0.24,2.1,0.721c0.54,0.479,0.81,1.08,0.81,1.8c0,0.78-0.27,1.425-0.81,1.935c-0.54,0.511-1.24,0.766-2.1,0.766
		C53.769,6.101,53.069,5.851,52.529,5.351z M52.29,8.351h4.68v16.14h-4.68V8.351z"/>
	<path fill="#FFFFFF" d="M71.579,24.49l-3.54-4.95l-3.66,4.95h-5.1l6.21-8.13l-6-8.01h5.25l3.42,4.71l3.51-4.71h4.98l-6,7.89
		l6.24,8.25H71.579z"/>
	<path fill="#FFFFFF" d="M92.744,10.315c1.17,1.15,1.755,2.825,1.755,5.024v9.15h-2.13v-8.94c0-1.64-0.41-2.89-1.23-3.75
		c-0.82-0.859-1.99-1.29-3.51-1.29c-1.7,0-3.045,0.506-4.035,1.516c-0.99,1.01-1.485,2.405-1.485,4.185v8.28h-2.13V2.23h2.13v9.24
		c0.58-0.92,1.379-1.63,2.4-2.131c1.02-0.499,2.19-0.75,3.51-0.75C89.999,8.59,91.574,9.165,92.744,10.315z"/>
	<path fill="#FFFFFF" d="M102.688,23.605c-1.22-0.69-2.18-1.646-2.88-2.865s-1.05-2.6-1.05-4.14s0.35-2.92,1.05-4.141
		c0.7-1.22,1.66-2.17,2.88-2.85s2.59-1.021,4.11-1.021c1.52,0,2.89,0.341,4.11,1.021c1.22,0.68,2.175,1.63,2.864,2.85
		c0.69,1.221,1.035,2.601,1.035,4.141s-0.345,2.92-1.035,4.14c-0.689,1.22-1.645,2.175-2.864,2.865
		c-1.221,0.689-2.591,1.035-4.11,1.035C105.277,24.641,103.907,24.295,102.688,23.605z M109.813,21.985
		c0.89-0.51,1.585-1.234,2.085-2.175s0.75-2.011,0.75-3.21c0-1.2-0.25-2.271-0.75-3.21c-0.5-0.94-1.195-1.665-2.085-2.176
		c-0.89-0.51-1.895-0.765-3.015-0.765s-2.125,0.255-3.015,0.765c-0.891,0.511-1.59,1.235-2.101,2.176
		c-0.51,0.939-0.765,2.01-0.765,3.21c0,1.199,0.255,2.27,0.765,3.21c0.511,0.94,1.21,1.665,2.101,2.175
		c0.89,0.51,1.895,0.765,3.015,0.765S108.923,22.495,109.813,21.985z"/>
	<path fill="#FFFFFF" d="M119.714,24.085c-1.17-0.369-2.085-0.835-2.745-1.395l0.96-1.681c0.66,0.521,1.489,0.945,2.49,1.275
		c0.999,0.33,2.039,0.495,3.119,0.495c1.44,0,2.506-0.225,3.195-0.675c0.69-0.45,1.035-1.085,1.035-1.905
		c0-0.58-0.19-1.035-0.57-1.365s-0.86-0.579-1.439-0.75c-0.581-0.169-1.351-0.334-2.311-0.495c-1.28-0.239-2.31-0.484-3.09-0.734
		s-1.445-0.675-1.995-1.275c-0.55-0.6-0.825-1.43-0.825-2.49c0-1.319,0.55-2.399,1.65-3.239c1.1-0.841,2.63-1.261,4.59-1.261
		c1.021,0,2.04,0.136,3.061,0.405c1.02,0.271,1.859,0.625,2.52,1.065l-0.93,1.71c-1.301-0.9-2.851-1.351-4.65-1.351
		c-1.36,0-2.385,0.24-3.075,0.721c-0.689,0.479-1.034,1.109-1.034,1.89c0,0.6,0.194,1.08,0.585,1.44
		c0.39,0.359,0.874,0.625,1.454,0.795s1.381,0.345,2.4,0.524c1.26,0.24,2.27,0.48,3.03,0.72c0.76,0.24,1.41,0.65,1.95,1.23
		s0.81,1.38,0.81,2.4c0,1.38-0.575,2.475-1.725,3.284c-1.15,0.811-2.745,1.216-4.785,1.216
		C122.108,24.641,120.884,24.455,119.714,24.085z"/>
	<path fill="#FFFFFF" d="M142.139,23.53c-0.4,0.36-0.896,0.635-1.485,0.825c-0.59,0.189-1.205,0.285-1.845,0.285
		c-1.48,0-2.62-0.4-3.42-1.2c-0.801-0.8-1.2-1.93-1.2-3.391v-9.54h-2.82v-1.8h2.82V5.26h2.13v3.45h4.8v1.8h-4.8v9.421
		c0,0.939,0.235,1.654,0.705,2.145s1.145,0.735,2.025,0.735c0.439,0,0.864-0.07,1.274-0.21s0.766-0.34,1.065-0.601L142.139,23.53z"
		/>
</g>
<circle fill="#F1687D" cx="54.62" cy="3.5" r="3.5"/>
</svg>
