<?xml version="1.0" encoding="utf-8"?>
<!-- Generator: Adobe Illustrator 16.0.0, SVG Export Plug-In . SVG Version: 6.00 Build 0)  -->
<!DOCTYPE svg PUBLIC "-//W3C//DTD SVG 1.1//EN" "http://www.w3.org/Graphics/SVG/1.1/DTD/svg11.dtd">
<svg version="1.1" id="Layer_1" xmlns="http://www.w3.org/2000/svg" xmlns:xlink="http://www.w3.org/1999/xlink" x="0px" y="0px"
	viewBox="0 0 70 70" enable-background="new 0 0 70 70" xml:space="preserve">
<g>
	<defs>
		<rect id="SVGID_1_" width="70" height="70"/>
	</defs>
	<clipPath id="SVGID_2_">
		<use xlink:href="#SVGID_1_"  overflow="visible"/>
	</clipPath>
	
		<circle clip-path="url(#SVGID_2_)" fill="none" stroke="#745984" stroke-width="2" stroke-linecap="round" stroke-linejoin="round" stroke-miterlimit="10" cx="35" cy="34.93" r="6.98"/>
	
		<path clip-path="url(#SVGID_2_)" fill="none" stroke="#745984" stroke-width="2" stroke-linecap="round" stroke-linejoin="round" stroke-miterlimit="10" d="
		M55.22,43.92c-1.381-1.381-8.012-5.103-13.313-7.972c-0.265,1.805-1.22,3.385-2.588,4.464c2.755,5.055,6.034,10.822,7.31,12.1
		c2.373,2.372,6.221,2.372,8.592,0C57.593,50.14,57.593,46.292,55.22,43.92z"/>
	
		<path clip-path="url(#SVGID_2_)" fill="none" stroke="#745984" stroke-width="2" stroke-linecap="round" stroke-linejoin="round" stroke-miterlimit="10" d="
		M28.094,35.948c-5.303,2.869-11.934,6.592-13.314,7.973c-2.374,2.372-2.374,6.218,0,8.591c2.372,2.373,6.218,2.373,8.591,0
		c1.277-1.277,4.556-7.044,7.311-12.099C29.314,39.334,28.359,37.754,28.094,35.948z"/>
	
		<path clip-path="url(#SVGID_2_)" fill="none" stroke="#745984" stroke-width="2" stroke-linecap="round" stroke-linejoin="round" stroke-miterlimit="10" d="
		M35,27.95c1.057,0,2.058,0.236,2.955,0.656c1.547-5.298,3.121-11.113,3.121-12.821c0-3.356-2.721-6.076-6.076-6.076
		c-3.354,0-6.075,2.72-6.075,6.076c0,1.708,1.575,7.523,3.121,12.821C32.942,28.186,33.943,27.95,35,27.95z"/>
	
		<circle clip-path="url(#SVGID_2_)" fill="none" stroke="#745984" stroke-width="2" stroke-linecap="round" stroke-linejoin="round" stroke-miterlimit="10" cx="34.999" cy="35" r="34"/>
</g>
</svg>
