<?xml version="1.0" encoding="utf-8"?>
<!-- Generator: Adobe Illustrator 16.0.0, SVG Export Plug-In . SVG Version: 6.00 Build 0)  -->
<!DOCTYPE svg PUBLIC "-//W3C//DTD SVG 1.1//EN" "http://www.w3.org/Graphics/SVG/1.1/DTD/svg11.dtd">
<svg version="1.1" id="Layer_1" xmlns="http://www.w3.org/2000/svg" xmlns:xlink="http://www.w3.org/1999/xlink" x="0px" y="0px"
	viewBox="0 0 70 70" enable-background="new 0 0 70 70" xml:space="preserve">
<g>
	<defs>
		<rect id="SVGID_1_" width="70" height="70"/>
	</defs>
	<clipPath id="SVGID_2_">
		<use xlink:href="#SVGID_1_"  overflow="visible"/>
	</clipPath>
	
		<circle clip-path="url(#SVGID_2_)" fill="none" stroke="#745984" stroke-width="2" stroke-linecap="round" stroke-linejoin="round" stroke-miterlimit="10" cx="35" cy="35" r="34"/>
	
		<line clip-path="url(#SVGID_2_)" fill="none" stroke="#745984" stroke-width="2" stroke-linecap="round" stroke-linejoin="round" stroke-miterlimit="10" x1="1" y1="35" x2="69" y2="35"/>
	
		<path clip-path="url(#SVGID_2_)" fill="none" stroke="#745984" stroke-width="2" stroke-linecap="round" stroke-linejoin="round" stroke-miterlimit="10" d="
		M35,1c-15.111,15.111-15.111,52.889,0,68"/>
	
		<path clip-path="url(#SVGID_2_)" fill="none" stroke="#745984" stroke-width="2" stroke-linecap="round" stroke-linejoin="round" stroke-miterlimit="10" d="
		M35,1c15.111,15.111,15.111,52.889,0,68"/>
	<path clip-path="url(#SVGID_2_)" fill="#FFFFFF" d="M28.016,34.86c0,2.475-2.007,4.481-4.481,4.481
		c-2.475,0-4.482-2.006-4.482-4.481s2.007-4.481,4.482-4.481C26.009,30.379,28.016,32.385,28.016,34.86"/>
	
		<circle clip-path="url(#SVGID_2_)" fill="none" stroke="#745984" stroke-width="2" stroke-linecap="round" stroke-linejoin="round" stroke-miterlimit="10" cx="23.534" cy="34.86" r="4.481"/>
	<path clip-path="url(#SVGID_2_)" fill="#FFFFFF" d="M47.146,14.393c0,2.475-2.007,4.481-4.481,4.481
		c-2.476,0-4.481-2.006-4.481-4.481s2.006-4.481,4.481-4.481C45.139,9.912,47.146,11.917,47.146,14.393"/>
	
		<circle clip-path="url(#SVGID_2_)" fill="none" stroke="#745984" stroke-width="2" stroke-linecap="round" stroke-linejoin="round" stroke-miterlimit="10" cx="42.664" cy="14.393" r="4.481"/>
	<path clip-path="url(#SVGID_2_)" fill="#FFFFFF" d="M67.612,53.989c0,2.476-2.007,4.481-4.481,4.481s-4.481-2.006-4.481-4.481
		c0-2.475,2.007-4.481,4.481-4.481S67.612,51.515,67.612,53.989"/>
	
		<circle clip-path="url(#SVGID_2_)" fill="none" stroke="#745984" stroke-width="2" stroke-linecap="round" stroke-linejoin="round" stroke-miterlimit="10" cx="63.131" cy="53.989" r="4.481"/>
	<path clip-path="url(#SVGID_2_)" fill="#FFFFFF" d="M11.294,15.864c0,2.475-2.006,4.481-4.481,4.481s-4.482-2.006-4.482-4.481
		s2.007-4.481,4.482-4.481S11.294,13.389,11.294,15.864"/>
	
		<circle clip-path="url(#SVGID_2_)" fill="none" stroke="#745984" stroke-width="2" stroke-linecap="round" stroke-linejoin="round" stroke-miterlimit="10" cx="6.813" cy="15.864" r="4.481"/>
</g>
</svg>
