<?xml version="1.0" encoding="utf-8"?>
<!-- Generator: Adobe Illustrator 16.0.0, SVG Export Plug-In . SVG Version: 6.00 Build 0)  -->
<!DOCTYPE svg PUBLIC "-//W3C//DTD SVG 1.1//EN" "http://www.w3.org/Graphics/SVG/1.1/DTD/svg11.dtd">
<svg version="1.1" id="Layer_1" xmlns="http://www.w3.org/2000/svg" xmlns:xlink="http://www.w3.org/1999/xlink" x="0px" y="0px"
	viewBox="0 0 62 62" enable-background="new 0 0 62 62" xml:space="preserve">
<line fill="none" stroke="#745984" stroke-width="2" stroke-linecap="round" stroke-linejoin="round" x1="5.348" y1="33" x2="56.652" y2="33"/>
<g>
	<defs>
		<rect id="SVGID_1_" width="62" height="62"/>
	</defs>
	<clipPath id="SVGID_2_">
		<use xlink:href="#SVGID_1_"  overflow="visible"/>
	</clipPath>
	
		<path clip-path="url(#SVGID_2_)" fill="none" stroke="#745984" stroke-width="2" stroke-linecap="round" stroke-linejoin="round" d="
		M58.321,39H3.678C2.199,39,1,40.199,1,41.679v16.643C1,59.801,2.199,61,3.678,61h54.643C59.8,61,61,59.801,61,58.321V41.679
		C61,40.199,59.8,39,58.321,39z"/>
	
		<line clip-path="url(#SVGID_2_)" fill="none" stroke="#745984" stroke-width="2" stroke-linecap="round" stroke-linejoin="round" x1="7.521" y1="50" x2="12.739" y2="50"/>
	
		<line clip-path="url(#SVGID_2_)" fill="none" stroke="#745984" stroke-width="2" stroke-linecap="round" stroke-linejoin="round" x1="54.479" y1="50" x2="55.783" y2="50"/>
	
		<line clip-path="url(#SVGID_2_)" fill="none" stroke="#745984" stroke-width="2" stroke-linecap="round" stroke-linejoin="round" x1="47.957" y1="50" x2="49.261" y2="50"/>
	
		<polyline clip-path="url(#SVGID_2_)" fill="none" stroke="#745984" stroke-width="2" stroke-linecap="round" stroke-linejoin="round" points="
		43,27 54,10.36 40,18.68 31,1 22,18.68 8,10.36 19,27 	"/>
	
		<polyline clip-path="url(#SVGID_2_)" fill="none" stroke="#745984" stroke-width="2" stroke-linecap="round" stroke-linejoin="round" points="
		16.334,12.06 18.334,4.78 23.334,9.979 	"/>
	
		<polyline clip-path="url(#SVGID_2_)" fill="none" stroke="#745984" stroke-width="2" stroke-linecap="round" stroke-linejoin="round" points="
		45.667,12.06 43.667,4.78 38.667,9.979 	"/>
</g>
</svg>
