<?xml version="1.0" encoding="utf-8"?>
<!-- Generator: Adobe Illustrator 16.0.0, SVG Export Plug-In . SVG Version: 6.00 Build 0)  -->
<!DOCTYPE svg PUBLIC "-//W3C//DTD SVG 1.1//EN" "http://www.w3.org/Graphics/SVG/1.1/DTD/svg11.dtd">
<svg version="1.1" id="Layer_1" xmlns="http://www.w3.org/2000/svg" xmlns:xlink="http://www.w3.org/1999/xlink" x="0px" y="0px"
	viewBox="0 0 100 100" enable-background="new 0 0 100 100" xml:space="preserve">
<circle fill="#CB6686" cx="50" cy="50" r="50"/>
<g>
	<defs>
		<rect id="SVGID_1_" x="23.783" y="20" width="52.434" height="60"/>
	</defs>
	<clipPath id="SVGID_2_">
		<use xlink:href="#SVGID_1_"  overflow="visible"/>
	</clipPath>
	
		<path clip-path="url(#SVGID_2_)" fill="none" stroke="#FFFFFF" stroke-width="2" stroke-linecap="round" stroke-linejoin="round" d="
		M47.34,64.959c-2.144,3.169-5.424,5.503-9.241,6.337"/>
	
		<path clip-path="url(#SVGID_2_)" fill="none" stroke="#FFFFFF" stroke-width="2" stroke-linecap="round" stroke-linejoin="round" d="
		M50,47.479v8.826c0,1.308-0.165,2.584-0.478,3.805"/>
	
		<path clip-path="url(#SVGID_2_)" fill="none" stroke="#FFFFFF" stroke-width="2" stroke-linecap="round" stroke-linejoin="round" d="
		M55.045,51.261v5.044c0,5.572-2.26,10.616-5.901,14.272c-1.5,1.501-3.241,2.749-5.146,3.72"/>
	
		<path clip-path="url(#SVGID_2_)" fill="none" stroke="#FFFFFF" stroke-width="2" stroke-linecap="round" stroke-linejoin="round" d="
		M34.869,66.392c5.573,0,10.087-4.515,10.087-10.087V46.218c0-1.388,0.567-2.648,1.477-3.568c0.92-0.908,2.181-1.476,3.567-1.476
		c2.787,0,5.045,2.257,5.045,5.044"/>
	
		<path clip-path="url(#SVGID_2_)" fill="none" stroke="#FFFFFF" stroke-width="2" stroke-linecap="round" stroke-linejoin="round" d="
		M61.348,36.131c-3.033-3.369-7.16-5.044-11.348-5.044c-8.359,0-15.131,6.771-15.131,15.131v8.826"/>
	
		<path clip-path="url(#SVGID_2_)" fill="none" stroke="#FFFFFF" stroke-width="2" stroke-linecap="round" stroke-linejoin="round" d="
		M61.059,71.889h0.012c2.572-4.438,4.061-9.57,4.061-15.08V46.218c0-1.769-0.303-3.468-0.857-5.044"/>
	
		<path clip-path="url(#SVGID_2_)" fill="none" stroke="#FFFFFF" stroke-width="2" stroke-linecap="round" stroke-linejoin="round" d="
		M59.248,62.779c-1.156,4.359-3.453,8.257-6.551,11.354c-0.352,0.354-0.719,0.693-1.084,1.021"/>
	
		<path clip-path="url(#SVGID_2_)" fill="none" stroke="#FFFFFF" stroke-width="2" stroke-linecap="round" stroke-linejoin="round" d="
		M39.913,46.218c0-2.787,1.136-5.309,2.95-7.137c1.828-1.815,4.352-2.95,7.137-2.95c5.572,0,10.088,4.514,10.088,10.087v10.087"/>
	
		<path clip-path="url(#SVGID_2_)" fill="none" stroke="#FFFFFF" stroke-width="2" stroke-linecap="round" stroke-linejoin="round" d="
		M29.826,56.305c0,0.441,0.052,0.857,0.164,1.261c0.228,0.883,0.693,1.678,1.313,2.308c0.92,0.907,2.18,1.475,3.566,1.475
		c2.787,0,5.044-2.257,5.044-5.043v-3.783"/>
	
		<path clip-path="url(#SVGID_2_)" fill="none" stroke="#FFFFFF" stroke-width="2" stroke-linecap="round" stroke-linejoin="round" d="
		M44.956,26.679c-8.703,2.238-15.13,10.135-15.13,19.539v5.043"/>
	
		<path clip-path="url(#SVGID_2_)" fill="none" stroke="#FFFFFF" stroke-width="2" stroke-linecap="round" stroke-linejoin="round" d="
		M36.064,74.803c-6.8-4.517-11.281-12.245-11.281-21.021v-7.563c0-5.678,1.877-10.917,5.043-15.132"/>
	
		<path clip-path="url(#SVGID_2_)" fill="none" stroke="#FFFFFF" stroke-width="2" stroke-linecap="round" stroke-linejoin="round" d="
		M65.131,73.958C60.916,77.124,55.678,79,50,79c-2.665,0-5.232-0.413-7.644-1.18"/>
	
		<path clip-path="url(#SVGID_2_)" fill="none" stroke="#FFFFFF" stroke-width="2" stroke-linecap="round" stroke-linejoin="round" d="
		M70.176,31.086c3.166,4.215,5.043,9.454,5.043,15.132v7.564c0,6.321-2.326,12.099-6.168,16.524"/>
	
		<path clip-path="url(#SVGID_2_)" fill="none" stroke="#FFFFFF" stroke-width="2" stroke-linecap="round" stroke-linejoin="round" d="
		M33.518,27.132C37.938,23.312,43.7,21,50,21c5.678,0,10.916,1.876,15.131,5.042"/>
	
		<path clip-path="url(#SVGID_2_)" fill="none" stroke="#FFFFFF" stroke-width="2" stroke-linecap="round" stroke-linejoin="round" d="
		M75.219,53.782c0,1.388-1.137,2.522-2.523,2.522s-2.521-1.135-2.521-2.522v-7.564c0-5.574-2.258-10.618-5.9-14.274
		c-3.658-3.643-8.701-5.9-14.273-5.9"/>
</g>
</svg>
