<?xml version="1.0" encoding="utf-8"?>
<!-- Generator: Adobe Illustrator 16.0.0, SVG Export Plug-In . SVG Version: 6.00 Build 0)  -->
<!DOCTYPE svg PUBLIC "-//W3C//DTD SVG 1.1//EN" "http://www.w3.org/Graphics/SVG/1.1/DTD/svg11.dtd">
<svg version="1.1" id="Layer_1" xmlns="http://www.w3.org/2000/svg" xmlns:xlink="http://www.w3.org/1999/xlink" x="0px" y="0px"
	viewBox="0 0 100 100" enable-background="new 0 0 100 100" xml:space="preserve">
<circle fill="#CB6686" cx="50" cy="50" r="50"/>
<g>
	<polyline fill="none" stroke="#FFFFFF" stroke-width="2" stroke-linecap="round" stroke-linejoin="round" points="48.81,55.952 
		51.19,55.952 51.19,67.857 	"/>
	
		<line fill="none" stroke="#FFFFFF" stroke-width="2" stroke-linecap="round" stroke-linejoin="round" x1="47.619" y1="67.857" x2="52.381" y2="67.857"/>
	
		<line fill="none" stroke="#FFFFFF" stroke-width="2" stroke-linecap="round" stroke-linejoin="round" x1="49.405" y1="51.19" x2="50.595" y2="51.19"/>
	<g>
		<defs>
			<rect id="SVGID_1_" x="24" y="24" width="52" height="52"/>
		</defs>
		<clipPath id="SVGID_2_">
			<use xlink:href="#SVGID_1_"  overflow="visible"/>
		</clipPath>
		
			<path clip-path="url(#SVGID_2_)" fill="none" stroke="#FFFFFF" stroke-width="2" stroke-linecap="round" stroke-linejoin="round" d="
			M30.952,67.857h-4.625c-0.733,0-1.327-0.594-1.327-1.327V26.326C25,25.593,25.594,25,26.327,25h47.347
			C74.406,25,75,25.593,75,26.326V66.53c0,0.733-0.594,1.327-1.326,1.327h-4.701"/>
		
			<line clip-path="url(#SVGID_2_)" fill="none" stroke="#FFFFFF" stroke-width="2" stroke-linecap="round" stroke-linejoin="round" x1="25" y1="32.143" x2="75" y2="32.143"/>
		
			<line clip-path="url(#SVGID_2_)" fill="none" stroke="#FFFFFF" stroke-width="2" stroke-linejoin="round" x1="28.571" y1="28.571" x2="30.952" y2="28.571"/>
		
			<line clip-path="url(#SVGID_2_)" fill="none" stroke="#FFFFFF" stroke-width="2" stroke-linejoin="round" x1="33.333" y1="28.571" x2="35.714" y2="28.571"/>
		
			<circle clip-path="url(#SVGID_2_)" fill="none" stroke="#FFFFFF" stroke-width="2" stroke-linecap="round" stroke-linejoin="round" cx="50" cy="59.523" r="15.477"/>
	</g>
</g>
</svg>
