<?xml version="1.0" encoding="utf-8"?>
<!-- Generator: Adobe Illustrator 16.0.0, SVG Export Plug-In . SVG Version: 6.00 Build 0)  -->
<!DOCTYPE svg PUBLIC "-//W3C//DTD SVG 1.1//EN" "http://www.w3.org/Graphics/SVG/1.1/DTD/svg11.dtd">
<svg version="1.1" id="Layer_1" xmlns="http://www.w3.org/2000/svg" xmlns:xlink="http://www.w3.org/1999/xlink" x="0px" y="0px"
viewBox="0 0 49.386 48" enable-background="new 0 0 49.386 48" xml:space="preserve">
<g>
	<defs>
		<rect id="SVGID_1_" width="49.386" height="48"/>
	</defs>
	<clipPath id="SVGID_2_">
		<use xlink:href="#SVGID_1_"  overflow="visible"/>
	</clipPath>
	
		<circle clip-path="url(#SVGID_2_)" fill="none" stroke="#1E222F" stroke-width="2" stroke-linecap="round" stroke-linejoin="round" cx="24" cy="24" r="23"/>
	
		<line clip-path="url(#SVGID_2_)" fill="none" stroke="#1E222F" stroke-width="2" stroke-linecap="round" stroke-linejoin="round" x1="1" y1="24" x2="47" y2="24"/>
	
		<path clip-path="url(#SVGID_2_)" fill="none" stroke="#1E222F" stroke-width="2" stroke-linecap="round" stroke-linejoin="round" d="
		M24,1c-10.222,10.222-10.222,35.778,0,46"/>
	
		<path clip-path="url(#SVGID_2_)" fill="none" stroke="#1E222F" stroke-width="2" stroke-linecap="round" stroke-linejoin="round" d="
		M24,1c10.222,10.222,10.222,35.778,0,46"/>
	<path clip-path="url(#SVGID_2_)" fill="#FFFFFF" d="M19.335,24.01c0,1.656-1.343,3-3,3c-1.657,0-3-1.344-3-3c0-1.657,1.343-3,3-3
		C17.992,21.009,19.335,22.353,19.335,24.01"/>
	
		<circle clip-path="url(#SVGID_2_)" fill="none" stroke="#1E222F" stroke-width="2" stroke-linecap="round" stroke-linejoin="round" cx="16.335" cy="24.01" r="3"/>
	<path clip-path="url(#SVGID_2_)" fill="#FFFFFF" d="M9.428,9.232c0,1.657-1.343,3-3,3c-1.657,0-3-1.343-3-3c0-1.657,1.343-3,3-3
		C8.085,6.232,9.428,7.575,9.428,9.232"/>
	
		<circle clip-path="url(#SVGID_2_)" fill="none" stroke="#1E222F" stroke-width="2" stroke-linecap="round" stroke-linejoin="round" cx="6.428" cy="9.232" r="3"/>
	<path clip-path="url(#SVGID_2_)" fill="#FFFFFF" d="M48.386,15.529c0,1.657-1.343,3-3,3c-1.656,0-3-1.343-3-3s1.344-3,3-3
		C47.043,12.529,48.386,13.872,48.386,15.529"/>
	
		<circle clip-path="url(#SVGID_2_)" fill="none" stroke="#1E222F" stroke-width="2" stroke-linecap="round" stroke-linejoin="round" cx="45.386" cy="15.529" r="3"/>
	<path clip-path="url(#SVGID_2_)" fill="#FFFFFF" d="M13.458,42.481c0,1.656-1.343,3-3,3s-3-1.344-3-3c0-1.657,1.343-3,3-3
		S13.458,40.824,13.458,42.481"/>
	
		<circle clip-path="url(#SVGID_2_)" fill="none" stroke="#1E222F" stroke-width="2" stroke-linecap="round" stroke-linejoin="round" cx="10.458" cy="42.481" r="3"/>
	<path clip-path="url(#SVGID_2_)" fill="#FFFFFF" d="M32.998,35.204c0,1.657-1.343,3-3,3s-3-1.343-3-3s1.343-3,3-3
		S32.998,33.547,32.998,35.204"/>
	
		<circle clip-path="url(#SVGID_2_)" fill="none" stroke="#1E222F" stroke-width="2" stroke-linecap="round" stroke-linejoin="round" cx="29.998" cy="35.204" r="3"/>
</g>
</svg>
