<?xml version="1.0" encoding="utf-8"?>
<!-- Generator: Adobe Illustrator 16.0.0, SVG Export Plug-In . SVG Version: 6.00 Build 0)  -->
<!DOCTYPE svg PUBLIC "-//W3C//DTD SVG 1.1//EN" "http://www.w3.org/Graphics/SVG/1.1/DTD/svg11.dtd">
<svg version="1.1" id="Layer_1" xmlns="http://www.w3.org/2000/svg" xmlns:xlink="http://www.w3.org/1999/xlink" x="0px" y="0px"
viewBox="0 0 48 48" enable-background="new 0 0 48 48" xml:space="preserve">
<g>
	<defs>
		<rect id="SVGID_1_" width="48" height="48"/>
	</defs>
	<clipPath id="SVGID_2_">
		<use xlink:href="#SVGID_1_"  overflow="visible"/>
	</clipPath>
	
		<path clip-path="url(#SVGID_2_)" fill="none" stroke="#1E222F" stroke-width="2" stroke-linecap="round" stroke-linejoin="round" d="
		M17,40.532c-4.253-1.977-7-5.797-7-10.532V19c0,0,5.569-5.051,12.416-3.527c7.967,1.771,12.192,1.306,14.547,0.527
		c1.036,1,1.036,2,1.036,4v10c0,4.75-2.762,8.578-7.036,10.55"/>
	
		<path clip-path="url(#SVGID_2_)" fill="none" stroke="#1E222F" stroke-width="2" stroke-linecap="round" stroke-linejoin="round" d="
		M17.01,15.49C17.05,13.57,17.43,7.79,21,6"/>
	
		<path clip-path="url(#SVGID_2_)" fill="none" stroke="#1E222F" stroke-width="2" stroke-linecap="round" stroke-linejoin="round" d="
		M22.01,15.39C22.02,13.43,22.19,10.9,24,10"/>
	
		<path clip-path="url(#SVGID_2_)" fill="none" stroke="#1E222F" stroke-width="2" stroke-linecap="round" stroke-linejoin="round" d="
		M6,29V17C6,7.892,13,1,24,1s18,6.892,18,16v12c0,9.108-4.631,16-14,16"/>
	
		<path clip-path="url(#SVGID_2_)" fill="none" stroke="#1E222F" stroke-width="2" stroke-linecap="round" stroke-linejoin="round" d="
		M6,18H3c-1.23,0-2,0.77-2,2v7c0,1.23,0.77,2,2,2h3"/>
	
		<path clip-path="url(#SVGID_2_)" fill="none" stroke="#1E222F" stroke-width="2" stroke-linecap="round" stroke-linejoin="round" d="
		M42,18h3c1.229,0,2,0.77,2,2v7c0,1.23-0.771,2-2,2h-3"/>
	
		<path clip-path="url(#SVGID_2_)" fill="none" stroke="#1E222F" stroke-width="2" stroke-linecap="round" stroke-linejoin="round" d="
		M22,42h4c1.104,0,2,0.896,2,2v1c0,1.104-0.896,2-2,2h-4c-1.104,0-2-0.896-2-2v-1C20,42.896,20.896,42,22,42z"/>
</g>
</svg>
