<?xml version="1.0" encoding="utf-8"?>
<!-- Generator: Adobe Illustrator 16.0.0, SVG Export Plug-In . SVG Version: 6.00 Build 0)  -->
<!DOCTYPE svg PUBLIC "-//W3C//DTD SVG 1.1//EN" "http://www.w3.org/Graphics/SVG/1.1/DTD/svg11.dtd">
<svg version="1.1" id="Layer_1" xmlns="http://www.w3.org/2000/svg" xmlns:xlink="http://www.w3.org/1999/xlink" x="0px" y="0px"
	viewBox="0 0 185.406 220" enable-background="new 0 0 185.406 220" xml:space="preserve">
<g>
	<defs>
		<rect id="SVGID_1_" width="185.406" height="220"/>
	</defs>
	<clipPath id="SVGID_2_">
		<use xlink:href="#SVGID_1_"  overflow="visible"/>
	</clipPath>
	<path clip-path="url(#SVGID_2_)" fill="#EFEFEF" d="M68.511,136.453c-21.951-2.228-39.642-9.039-39.642-9.039
		S45.9,115.306,45.9,92.947c0-8.278-0.686-21.574,0-33.538C49.893-10.063,84.415,0.586,84.415,0.586l1.967,0.53
		c71.064-11.2,59.471,126.297,59.471,126.297s-13.568,4.669-36.571,7.63c0.014,0.095,0.033,0.194,0.047,0.289l-0.018-0.021
		l-22.714,25.709l-15.787-22.88c0.256-0.488,0.471-0.965,0.602-1.419c-0.564-0.045-1.125-0.097-1.684-0.149l-0.534-0.771
		L68.511,136.453z M126.801,143.422l-16.292,22.596l-4.997-2.248l-20.163,56.074c2.097,0.102,4.207,0.157,6.33,0.157
		c37.065,0,70.431-15.822,93.727-41.073C174.916,169.44,143.427,152.636,126.801,143.422 M63.587,167.055l-12.328-19.819
		c-14.694,10.902-35.559,22.686-46.073,29.05c-1.987,1.202-3.702,2.849-5.186,4.812c20.56,21.271,48.452,35.404,79.606,38.331
		l-13.405-53.494L63.587,167.055z"/>
</g>
</svg>
