<?xml version="1.0" encoding="utf-8"?>
<!-- Generator: Adobe Illustrator 16.0.0, SVG Export Plug-In . SVG Version: 6.00 Build 0)  -->
<!DOCTYPE svg PUBLIC "-//W3C//DTD SVG 1.1//EN" "http://www.w3.org/Graphics/SVG/1.1/DTD/svg11.dtd">
<svg version="1.1" id="Layer_1" xmlns="http://www.w3.org/2000/svg" xmlns:xlink="http://www.w3.org/1999/xlink" x="0px" y="0px"
	viewBox="0 0 198.6 220" enable-background="new 0 0 198.6 220" xml:space="preserve">
<g>
	<defs>
		<rect id="SVGID_1_" width="198.6" height="220"/>
	</defs>
	<clipPath id="SVGID_2_">
		<use xlink:href="#SVGID_1_"  overflow="visible"/>
	</clipPath>
	<path clip-path="url(#SVGID_2_)" fill="#EFEFEF" d="M120.902,217.98c31.395-5.646,58.797-22.785,77.697-46.906
		c-19.256-14.198-60.339-36.706-63.015-39.068L120.902,217.98z"/>
	<path clip-path="url(#SVGID_2_)" fill="#EFEFEF" d="M99.797,166.654l-5.302,53.289c1.226,0.035,2.455,0.057,3.69,0.057
		c6.854,0,13.578-0.547,20.139-1.589l-7.438-51.757l4.48-4.961l-10.262-16.979L95.08,161.229L99.797,166.654z"/>
	<path clip-path="url(#SVGID_2_)" fill="#EFEFEF" d="M72.969,128.777c-0.243,0.294-1.527,0-1.527,0S17.038,163.398,0,173.84
		c21.87,26.369,54.159,43.778,90.554,45.926L73.829,129.64l0.057-2.17C73.602,127.931,73.303,128.375,72.969,128.777"/>
	<path clip-path="url(#SVGID_2_)" fill="#EFEFEF" d="M74.556,93.524c0,0,5.605,23.742-0.67,33.944l31.219,17.245l26.683-16.177
		l0.041,0.024c-0.335-0.335-0.609-0.684-0.717-1.056c-4.421-15.345,3.387-36.927,3.387-36.927s2.29,0,4.328-0.254
		c2.036-0.252,4.58-24.426,4.325-28.497c-0.255-4.073-4.325-3.818-4.325-3.818s10.11-55.033-29.995-57.877l0.049-0.028
		c0,0-1.111-0.105-2.894-0.105C74.735,0,67.861,24.572,67.861,24.572l0.01-0.006c-5.819,17.375-0.737,37.579-0.737,37.579
		s-0.721-1.817-4.919-0.481c-4.198,1.335,1.102,21.282,2.247,28.152C65.607,96.687,74.556,93.524,74.556,93.524"/>
</g>
</svg>
